<svg width="20" height="20" viewBox="0 0 20 20" fill="none" xmlns="http://www.w3.org/2000/svg">
<g id="Frame" clip-path="url(#clip0_161_90)">
<g id="Group">
<g id="Layer 2">
<g id="26.behance">
<path id="Vector" d="M10 20C15.5228 20 20 15.5228 20 10C20 4.47715 15.5228 0 10 0C4.47715 0 0 4.47715 0 10C0 15.5228 4.47715 20 10 20Z" fill="#333333"/>
<g id="Group_2">
<path id="Vector_2" d="M11.8705 6.58675H15.0034V7.3663H11.8705V6.58675ZM16.25 10.9674C16.25 9.34016 14.9898 8.02085 13.4364 8.02085C11.883 8.02085 10.6227 9.34016 10.6227 10.9674C10.6227 12.5947 11.792 13.9129 13.4364 13.9129C14.6864 13.9129 15.7545 13.3629 16.117 12.0424H14.7977C14.6766 12.2685 14.4963 12.4574 14.2761 12.5889C14.056 12.7204 13.8042 12.7896 13.5477 12.789C12.8102 12.789 12.1614 12.2606 12.2 11.372H16.2284C16.25 11.2424 16.25 11.1083 16.25 10.9674ZM12.2045 10.389C12.3023 9.65721 12.8193 9.19016 13.4432 9.19016C14.067 9.19016 14.5795 9.65721 14.6818 10.389H12.2045ZM10.1409 11.0913C10.0386 9.96175 8.76136 9.58107 8.76136 9.58107C9.24659 9.3538 9.825 8.88903 9.81932 7.86516C9.81023 6.38789 8.26932 6.08789 7.77386 6.08789H3.75V13.772H7.40568C7.91364 13.772 8.45455 13.7049 8.88295 13.4913C10.0386 12.9231 10.2409 12.222 10.1409 11.0913ZM5.44091 7.41403H7.17045C7.17045 7.41403 8.19318 7.39016 8.19318 8.29471C8.19318 9.19925 7.17045 9.17425 7.17045 9.17425H5.44091V7.41403ZM7.27273 12.4674H5.44091V10.3663H7.27273C7.27273 10.3663 8.49091 10.3379 8.49091 11.4163C8.49091 12.4947 7.27273 12.4674 7.27273 12.4674Z" fill="white"/>
</g>
</g>
</g>
</g>
</g>
<defs>
<clipPath id="clip0_161_90">
<rect width="20" height="20" fill="white"/>
</clipPath>
</defs>
</svg>
