<svg width="438" height="84" viewBox="0 0 438 84" fill="none" xmlns="http://www.w3.org/2000/svg">
<g filter="url(#filter0_d_293_1541)">
<rect width="348" height="126" transform="translate(50 26)" fill="white"/>
<path d="M134.612 61.044V73.5H132.974V64.212L128.834 73.5H127.682L123.524 64.194V73.5H121.886V61.044H123.65L128.258 71.34L132.866 61.044H134.612ZM141.692 73.662C140.768 73.662 139.928 73.452 139.172 73.032C138.428 72.612 137.84 72.018 137.408 71.25C136.988 70.47 136.778 69.57 136.778 68.55C136.778 67.542 136.994 66.654 137.426 65.886C137.87 65.106 138.47 64.512 139.226 64.104C139.982 63.684 140.828 63.474 141.764 63.474C142.7 63.474 143.546 63.684 144.302 64.104C145.058 64.512 145.652 65.1 146.084 65.868C146.528 66.636 146.75 67.53 146.75 68.55C146.75 69.57 146.522 70.47 146.066 71.25C145.622 72.018 145.016 72.612 144.248 73.032C143.48 73.452 142.628 73.662 141.692 73.662ZM141.692 72.222C142.28 72.222 142.832 72.084 143.348 71.808C143.864 71.532 144.278 71.118 144.59 70.566C144.914 70.014 145.076 69.342 145.076 68.55C145.076 67.758 144.92 67.086 144.608 66.534C144.296 65.982 143.888 65.574 143.384 65.31C142.88 65.034 142.334 64.896 141.746 64.896C141.146 64.896 140.594 65.034 140.09 65.31C139.598 65.574 139.202 65.982 138.902 66.534C138.602 67.086 138.452 67.758 138.452 68.55C138.452 69.354 138.596 70.032 138.884 70.584C139.184 71.136 139.58 71.55 140.072 71.826C140.564 72.09 141.104 72.222 141.692 72.222ZM153.71 63.456C154.91 63.456 155.882 63.822 156.626 64.554C157.37 65.274 157.742 66.318 157.742 67.686V73.5H156.122V67.92C156.122 66.936 155.876 66.186 155.384 65.67C154.892 65.142 154.22 64.878 153.368 64.878C152.504 64.878 151.814 65.148 151.298 65.688C150.794 66.228 150.542 67.014 150.542 68.046V73.5H148.904V63.636H150.542V65.04C150.866 64.536 151.304 64.146 151.856 63.87C152.42 63.594 153.038 63.456 153.71 63.456ZM162.415 64.986V70.8C162.415 71.28 162.517 71.622 162.721 71.826C162.925 72.018 163.279 72.114 163.783 72.114H164.989V73.5H163.513C162.601 73.5 161.917 73.29 161.461 72.87C161.005 72.45 160.777 71.76 160.777 70.8V64.986H159.499V63.636H160.777V61.152H162.415V63.636H164.989V64.986H162.415ZM171.87 63.456C172.614 63.456 173.286 63.618 173.886 63.942C174.486 64.254 174.954 64.728 175.29 65.364C175.638 66 175.812 66.774 175.812 67.686V73.5H174.192V67.92C174.192 66.936 173.946 66.186 173.454 65.67C172.962 65.142 172.29 64.878 171.438 64.878C170.574 64.878 169.884 65.148 169.368 65.688C168.864 66.228 168.612 67.014 168.612 68.046V73.5H166.974V60.18H168.612V65.04C168.936 64.536 169.38 64.146 169.944 63.87C170.52 63.594 171.162 63.456 171.87 63.456ZM180.126 60.18V73.5H178.488V60.18H180.126ZM191.413 63.636L185.473 78.144H183.781L185.725 73.392L181.747 63.636H183.565L186.661 71.628L189.721 63.636H191.413ZM201.837 73.626C201.009 73.626 200.265 73.482 199.605 73.194C198.957 72.894 198.447 72.486 198.075 71.97C197.703 71.442 197.511 70.836 197.499 70.152H199.245C199.305 70.74 199.545 71.238 199.965 71.646C200.397 72.042 201.021 72.24 201.837 72.24C202.617 72.24 203.229 72.048 203.673 71.664C204.129 71.268 204.357 70.764 204.357 70.152C204.357 69.672 204.225 69.282 203.961 68.982C203.697 68.682 203.367 68.454 202.971 68.298C202.575 68.142 202.041 67.974 201.369 67.794C200.541 67.578 199.875 67.362 199.371 67.146C198.879 66.93 198.453 66.594 198.093 66.138C197.745 65.67 197.571 65.046 197.571 64.266C197.571 63.582 197.745 62.976 198.093 62.448C198.441 61.92 198.927 61.512 199.551 61.224C200.187 60.936 200.913 60.792 201.729 60.792C202.905 60.792 203.865 61.086 204.609 61.674C205.365 62.262 205.791 63.042 205.887 64.014H204.087C204.027 63.534 203.775 63.114 203.331 62.754C202.887 62.382 202.299 62.196 201.567 62.196C200.883 62.196 200.325 62.376 199.893 62.736C199.461 63.084 199.245 63.576 199.245 64.212C199.245 64.668 199.371 65.04 199.623 65.328C199.887 65.616 200.205 65.838 200.577 65.994C200.961 66.138 201.495 66.306 202.179 66.498C203.007 66.726 203.673 66.954 204.177 67.182C204.681 67.398 205.113 67.74 205.473 68.208C205.833 68.664 206.013 69.288 206.013 70.08C206.013 70.692 205.851 71.268 205.527 71.808C205.203 72.348 204.723 72.786 204.087 73.122C203.451 73.458 202.701 73.626 201.837 73.626ZM210.421 64.986V70.8C210.421 71.28 210.523 71.622 210.727 71.826C210.931 72.018 211.285 72.114 211.789 72.114H212.995V73.5H211.519C210.607 73.5 209.923 73.29 209.467 72.87C209.011 72.45 208.783 71.76 208.783 70.8V64.986H207.505V63.636H208.783V61.152H210.421V63.636H212.995V64.986H210.421ZM214.368 68.532C214.368 67.524 214.572 66.642 214.98 65.886C215.388 65.118 215.946 64.524 216.654 64.104C217.374 63.684 218.172 63.474 219.048 63.474C219.912 63.474 220.662 63.66 221.298 64.032C221.934 64.404 222.408 64.872 222.72 65.436V63.636H224.376V73.5H222.72V71.664C222.396 72.24 221.91 72.72 221.262 73.104C220.626 73.476 219.882 73.662 219.03 73.662C218.154 73.662 217.362 73.446 216.654 73.014C215.946 72.582 215.388 71.976 214.98 71.196C214.572 70.416 214.368 69.528 214.368 68.532ZM222.72 68.55C222.72 67.806 222.57 67.158 222.27 66.606C221.97 66.054 221.562 65.634 221.046 65.346C220.542 65.046 219.984 64.896 219.372 64.896C218.76 64.896 218.202 65.04 217.698 65.328C217.194 65.616 216.792 66.036 216.492 66.588C216.192 67.14 216.042 67.788 216.042 68.532C216.042 69.288 216.192 69.948 216.492 70.512C216.792 71.064 217.194 71.49 217.698 71.79C218.202 72.078 218.76 72.222 219.372 72.222C219.984 72.222 220.542 72.078 221.046 71.79C221.562 71.49 221.97 71.064 222.27 70.512C222.57 69.948 222.72 69.294 222.72 68.55ZM229.142 64.986V70.8C229.142 71.28 229.244 71.622 229.448 71.826C229.652 72.018 230.006 72.114 230.51 72.114H231.716V73.5H230.24C229.328 73.5 228.644 73.29 228.188 72.87C227.732 72.45 227.504 71.76 227.504 70.8V64.986H226.226V63.636H227.504V61.152H229.142V63.636H231.716V64.986H229.142ZM237.192 73.662C236.436 73.662 235.758 73.536 235.158 73.284C234.558 73.02 234.084 72.66 233.736 72.204C233.388 71.736 233.196 71.202 233.16 70.602H234.852C234.9 71.094 235.128 71.496 235.536 71.808C235.956 72.12 236.502 72.276 237.174 72.276C237.798 72.276 238.29 72.138 238.65 71.862C239.01 71.586 239.19 71.238 239.19 70.818C239.19 70.386 238.998 70.068 238.614 69.864C238.23 69.648 237.636 69.438 236.832 69.234C236.1 69.042 235.5 68.85 235.032 68.658C234.576 68.454 234.18 68.16 233.844 67.776C233.52 67.38 233.358 66.864 233.358 66.228C233.358 65.724 233.508 65.262 233.808 64.842C234.108 64.422 234.534 64.092 235.086 63.852C235.638 63.6 236.268 63.474 236.976 63.474C238.068 63.474 238.95 63.75 239.622 64.302C240.294 64.854 240.654 65.61 240.702 66.57H239.064C239.028 66.054 238.818 65.64 238.434 65.328C238.062 65.016 237.558 64.86 236.922 64.86C236.334 64.86 235.866 64.986 235.518 65.238C235.17 65.49 234.996 65.82 234.996 66.228C234.996 66.552 235.098 66.822 235.302 67.038C235.518 67.242 235.782 67.41 236.094 67.542C236.418 67.662 236.862 67.8 237.426 67.956C238.134 68.148 238.71 68.34 239.154 68.532C239.598 68.712 239.976 68.988 240.288 69.36C240.612 69.732 240.78 70.218 240.792 70.818C240.792 71.358 240.642 71.844 240.342 72.276C240.042 72.708 239.616 73.05 239.064 73.302C238.524 73.542 237.9 73.662 237.192 73.662Z" fill="#909090"/>
<rect x="305.75" y="64" width="7" height="64" rx="3.5" fill="#229A40"/>
<rect x="336" y="76" width="7" height="52" rx="3.5" fill="#229A40"/>
<rect x="367" y="50" width="7" height="78" rx="3.5" fill="#229A40"/>
<rect x="352" y="64" width="7" height="64" rx="3.5" fill="#FE0000"/>
<rect x="290.096" y="80" width="7.33945" height="47.7477" rx="3.66972" fill="#FE0000"/>
</g>
<rect x="1" y="50" width="80" height="80" fill="#229A40"/>
<path d="M34.5711 79.5508H31.7148V91.8723H34.5711V79.5508Z" fill="#229A40"/>
<path d="M40.2821 82.4102H37.4258V91.8753H40.2821V82.4102Z" fill="#229A40"/>
<path d="M50.9992 75.2656C50.988 75.2661 50.9768 75.2666 50.9657 75.2671L50.9141 81.5325L55.9699 85.7723C56.9129 84.6225 57.4281 83.1814 57.4278 81.6944C57.4278 79.9894 56.7505 78.3542 55.5449 77.1486C54.3393 75.943 52.7042 75.2657 50.9992 75.2657L50.9992 75.2656Z" fill="#229A40"/>
<path d="M23.1401 70.7344C21.94 70.7344 21 71.7674 21 72.9707V82.0404C21.0015 82.4327 21.3192 82.7504 21.7115 82.7519C22.1038 82.7505 22.4215 82.4327 22.423 82.0404V72.9707C22.423 72.4866 22.7574 72.1644 23.1401 72.1644H58.8537C59.2364 72.1644 59.5708 72.4866 59.5708 72.9707V94.9745H22.423V84.998C22.4215 84.6057 22.1038 84.2881 21.7115 84.2865C21.3192 84.288 21.0015 84.6057 21 84.998V98.8599C21 100.063 21.94 101.102 23.1401 101.102H36.8011L35.7966 104.122H33.4807C32.0988 104.122 30.9974 105.298 30.9974 106.691C30.9974 108.084 32.0988 109.263 33.4807 109.263H48.5131C49.895 109.263 50.9964 108.084 50.9964 106.691C50.9964 105.298 49.895 104.122 48.5131 104.122H46.2028L45.1983 101.102H58.8537C60.0539 101.102 60.9994 100.063 60.9994 98.8599V72.9707C60.9994 71.7674 60.0539 70.7344 58.8537 70.7344H23.1401ZM50.9964 74.5528C47.0599 74.5528 43.852 77.7551 43.852 81.6916C43.852 85.6281 47.0599 88.836 50.9964 88.836C54.9329 88.836 58.1422 85.6281 58.1422 81.6916C58.1422 77.7551 54.9329 74.5528 50.9964 74.5528ZM50.2849 76.0302V80.9801H45.3294C45.6499 78.3883 47.6924 76.35 50.2849 76.0302ZM51.7149 76.0302C54.5378 76.3819 56.7136 78.7711 56.7136 81.6916C56.7136 82.8568 56.3644 83.9368 55.7691 84.839L51.7149 81.3652V76.0302ZM31.7145 78.84C31.3199 78.8385 30.9988 79.1569 30.9974 79.5515V91.1561H29.5674V84.998C29.5661 84.6055 29.2485 84.2879 28.8559 84.2865H25.9987C25.6041 84.2851 25.283 84.6034 25.2816 84.998V91.1561H24.5701C24.4756 91.1555 24.3819 91.1737 24.2945 91.2096C24.2071 91.2456 24.1276 91.2985 24.0608 91.3653C23.994 91.4321 23.9411 91.5115 23.9052 91.599C23.8693 91.6864 23.8511 91.7801 23.8516 91.8746C23.852 91.9685 23.8709 92.0614 23.9072 92.148C23.9435 92.2347 23.9966 92.3133 24.0633 92.3793C24.13 92.4454 24.2091 92.4977 24.2961 92.5332C24.3831 92.5687 24.4762 92.5866 24.5701 92.5861H41.7119C41.8057 92.5865 41.8987 92.5684 41.9855 92.5328C42.0723 92.4972 42.1512 92.4449 42.2178 92.3788C42.2844 92.3128 42.3373 92.2342 42.3736 92.1477C42.4098 92.0612 42.4286 91.9684 42.429 91.8746C42.4295 91.7802 42.4114 91.6866 42.3756 91.5993C42.3397 91.512 42.287 91.4326 42.2203 91.3658C42.1536 91.299 42.0743 91.2461 41.9871 91.2101C41.8998 91.1741 41.8063 91.1557 41.7119 91.1561H41.0004V82.4087C41.0019 82.012 40.6786 81.6901 40.2819 81.6916H37.4247C37.0301 81.693 36.7117 82.0141 36.7132 82.4087V91.1561H35.2846V79.5515C35.2832 79.1569 34.9607 78.8385 34.5661 78.84H31.7145ZM32.426 80.2686H33.8546V91.1561H32.426V80.2686ZM45.3294 82.4087H50.7355L54.8358 85.9244C53.8216 86.8438 52.4778 87.4074 50.9964 87.4074C48.0754 87.4074 45.6812 85.2321 45.3294 82.4087ZM38.1418 83.1202H39.5704V91.1561H38.1418V83.1202ZM26.7102 85.7096H28.1388V91.1561H26.7102V85.7096ZM22.423 96.4031H59.5708V98.8599C59.5708 99.3441 59.2365 99.6719 58.8537 99.6719H23.1401C22.7574 99.6719 22.423 99.3441 22.423 98.8599V96.4031ZM38.305 101.102H43.6888L44.6961 104.122H37.2978L38.305 101.102ZM33.4807 105.552H48.5131C49.0909 105.552 49.5678 106.029 49.5678 106.691C49.5678 107.353 49.0909 107.835 48.5131 107.835H33.4807C32.9029 107.835 32.426 107.353 32.426 106.691C32.426 106.029 32.9029 105.552 33.4807 105.552Z" fill="#FAFAFA"/>
<defs>
<filter id="filter0_d_293_1541" x="0" y="0" width="448" height="226" filterUnits="userSpaceOnUse" color-interpolation-filters="sRGB">
<feFlood flood-opacity="0" result="BackgroundImageFix"/>
<feColorMatrix in="SourceAlpha" type="matrix" values="0 0 0 0 0 0 0 0 0 0 0 0 0 0 0 0 0 0 127 0" result="hardAlpha"/>
<feOffset dy="24"/>
<feGaussianBlur stdDeviation="25"/>
<feComposite in2="hardAlpha" operator="out"/>
<feColorMatrix type="matrix" values="0 0 0 0 0 0 0 0 0 0 0 0 0 0 0 0 0 0 0.15 0"/>
<feBlend mode="normal" in2="BackgroundImageFix" result="effect1_dropShadow_293_1541"/>
<feBlend mode="normal" in="SourceGraphic" in2="effect1_dropShadow_293_1541" result="shape"/>
</filter>
</defs>
</svg>
