<svg width="80" height="80" viewBox="0 0 80 80" fill="none" xmlns="http://www.w3.org/2000/svg">
<rect width="80" height="80" fill="#229A40"/>
<path d="M47.5179 54.8359H32.4832C31.5065 54.8359 30.7148 55.6663 30.7148 56.6906C30.7148 57.715 31.5065 58.5453 32.4832 58.5453H47.5179C48.4945 58.5453 49.2862 57.715 49.2862 56.6906C49.2862 55.6663 48.4945 54.8359 47.5179 54.8359Z" fill="#229A40"/>
<path d="M27.8563 35H25V41.8762H27.8563V35Z" fill="#229A40"/>
<path d="M33.5711 29.5508H30.7148V41.8723H33.5711V29.5508Z" fill="#229A40"/>
<path d="M39.2821 32.4102H36.4258V41.8753H39.2821V32.4102Z" fill="#229A40"/>
<path d="M49.9992 25.2656C49.988 25.2661 49.9768 25.2666 49.9657 25.2671L49.9141 31.5325L54.9699 35.7723C55.9129 34.6225 56.4281 33.1814 56.4278 31.6944C56.4278 29.9894 55.7505 28.3542 54.5449 27.1486C53.3393 25.943 51.7042 25.2657 49.9992 25.2657L49.9992 25.2656Z" fill="#229A40"/>
<path d="M22.1401 20.7344C20.94 20.7344 20 21.7674 20 22.9707V32.0404C20.0015 32.4327 20.3192 32.7504 20.7115 32.7519C21.1038 32.7505 21.4215 32.4327 21.423 32.0404V22.9707C21.423 22.4866 21.7574 22.1644 22.1401 22.1644H57.8537C58.2364 22.1644 58.5708 22.4866 58.5708 22.9707V44.9745H21.423V34.998C21.4215 34.6057 21.1038 34.2881 20.7115 34.2865C20.3192 34.288 20.0015 34.6057 20 34.998V48.8599C20 50.0633 20.94 51.1019 22.1401 51.1019H35.8011L34.7966 54.1223H32.4807C31.0988 54.1223 29.9974 55.2975 29.9974 56.6907C29.9974 58.0839 31.0988 59.2633 32.4807 59.2633H47.5131C48.895 59.2633 49.9964 58.0839 49.9964 56.6907C49.9964 55.2975 48.895 54.1223 47.5131 54.1223H45.2028L44.1983 51.1019H57.8537C59.0539 51.1019 59.9994 50.0633 59.9994 48.8599V22.9707C59.9994 21.7674 59.0539 20.7344 57.8537 20.7344H22.1401ZM49.9964 24.5528C46.0599 24.5528 42.852 27.7551 42.852 31.6916C42.852 35.6281 46.0599 38.836 49.9964 38.836C53.9329 38.836 57.1422 35.6281 57.1422 31.6916C57.1422 27.7551 53.9329 24.5528 49.9964 24.5528ZM49.2849 26.0302V30.9801H44.3294C44.6499 28.3883 46.6924 26.35 49.2849 26.0302ZM50.7149 26.0302C53.5378 26.3819 55.7136 28.7711 55.7136 31.6916C55.7136 32.8568 55.3644 33.9368 54.7691 34.839L50.7149 31.3652V26.0302ZM30.7145 28.84C30.3199 28.8385 29.9988 29.1569 29.9974 29.5515V41.1561H28.5674V34.998C28.5661 34.6055 28.2485 34.2879 27.8559 34.2865H24.9987C24.6041 34.2851 24.283 34.6034 24.2816 34.998V41.1561H23.5701C23.4756 41.1555 23.3819 41.1737 23.2945 41.2096C23.2071 41.2456 23.1276 41.2985 23.0608 41.3653C22.994 41.4321 22.9411 41.5115 22.9052 41.599C22.8693 41.6864 22.8511 41.7801 22.8516 41.8746C22.852 41.9685 22.8709 42.0614 22.9072 42.148C22.9435 42.2347 22.9966 42.3133 23.0633 42.3793C23.13 42.4454 23.2091 42.4977 23.2961 42.5332C23.3831 42.5687 23.4762 42.5866 23.5701 42.5861H40.7119C40.8057 42.5865 40.8987 42.5684 40.9855 42.5328C41.0723 42.4972 41.1512 42.4449 41.2178 42.3788C41.2844 42.3128 41.3373 42.2342 41.3736 42.1477C41.4098 42.0612 41.4286 41.9684 41.429 41.8746C41.4295 41.7802 41.4114 41.6866 41.3756 41.5993C41.3397 41.512 41.287 41.4326 41.2203 41.3658C41.1536 41.299 41.0743 41.2461 40.9871 41.2101C40.8998 41.1741 40.8063 41.1557 40.7119 41.1561H40.0004V32.4087C40.0019 32.012 39.6786 31.6901 39.2819 31.6916H36.4247C36.0301 31.693 35.7117 32.0141 35.7132 32.4087V41.1561H34.2846V29.5515C34.2832 29.1569 33.9607 28.8385 33.5661 28.84H30.7145ZM31.426 30.2686H32.8546V41.1561H31.426V30.2686ZM44.3294 32.4087H49.7355L53.8358 35.9244C52.8216 36.8438 51.4778 37.4074 49.9964 37.4074C47.0754 37.4074 44.6812 35.2321 44.3294 32.4087ZM37.1418 33.1202H38.5704V41.1561H37.1418V33.1202ZM25.7102 35.7096H27.1388V41.1561H25.7102V35.7096ZM21.423 46.4031H58.5708V48.8599C58.5708 49.3441 58.2365 49.6719 57.8537 49.6719H22.1401C21.7574 49.6719 21.423 49.3441 21.423 48.8599V46.4031ZM37.305 51.1019H42.6888L43.6961 54.1223H36.2978L37.305 51.1019ZM32.4807 55.5523H47.5131C48.0909 55.5523 48.5678 56.0286 48.5678 56.6907C48.5678 57.3528 48.0909 57.8347 47.5131 57.8347H32.4807C31.9029 57.8347 31.426 57.3528 31.426 56.6907C31.426 56.0286 31.9029 55.5523 32.4807 55.5523Z" fill="#FAFAFA"/>
</svg>
