<svg width="40" height="40" viewBox="0 0 40 40" fill="none" xmlns="http://www.w3.org/2000/svg">
<g id="Frame" clip-path="url(#clip0_161_685)">
<g id="Group">
<path id="Vector" d="M31.6271 7.40234C31.0917 7.40234 30.656 7.83805 30.656 8.37344C30.656 8.90883 31.0917 9.34453 31.6271 9.34453C32.1626 9.34453 32.5982 8.90891 32.5982 8.37344C32.5982 7.83797 32.1626 7.40234 31.6271 7.40234ZM19.9997 11.3918C15.2527 11.3918 11.3906 15.2538 11.3906 20.0009C11.3906 24.7479 15.2527 28.61 19.9997 28.61C24.7468 28.61 28.6088 24.748 28.6088 20.0009C28.6088 15.2539 24.7468 11.3918 19.9997 11.3918Z" fill="white"/>
<path id="Vector_2" d="M29.0346 0H10.9654C4.91906 0 0 4.91906 0 10.9655V29.0346C0 35.081 4.91906 40 10.9654 40H29.0346C35.081 40 40 35.0809 40 29.0346V10.9655C40 4.91906 35.081 0 29.0346 0ZM20 30.9713C13.9504 30.9713 9.02883 26.0496 9.02883 20C9.02883 13.9504 13.9505 9.02891 20 9.02891C26.0495 9.02891 30.9713 13.9505 30.9713 20C30.9713 26.0495 26.0495 30.9713 20 30.9713ZM31.6274 11.7059C29.7895 11.7059 28.2941 10.2106 28.2941 8.37266C28.2941 6.53469 29.7895 5.0393 31.6274 5.0393C33.4654 5.0393 34.9607 6.53461 34.9607 8.37258C34.9607 10.2105 33.4654 11.7059 31.6274 11.7059Z" fill="white"/>
</g>
</g>
<defs>
<clipPath id="clip0_161_685">
<rect width="40" height="40" fill="white"/>
</clipPath>
</defs>
</svg>
