<svg width="40" height="40" viewBox="0 0 40 40" fill="none" xmlns="http://www.w3.org/2000/svg">
<g id="Frame" clip-path="url(#clip0_161_689)">
<g id="Group">
<path id="Vector" d="M20.2053 9.46875C14.5273 9.46875 9.92773 14.0366 9.92773 19.6829C9.92773 21.9033 10.6573 23.9969 11.8944 25.6781L10.5939 29.4846L14.559 28.2158C16.1767 29.2943 18.1434 29.897 20.237 29.897C25.915 29.897 30.5463 25.3292 30.5463 19.6829C30.5146 14.0366 25.8833 9.46875 20.2053 9.46875ZM26.2323 23.9017C25.9785 24.5996 24.7414 25.2657 24.2021 25.3292C23.6629 25.3926 23.6629 25.7733 20.5859 24.5996C17.5407 23.3942 15.6058 20.3173 15.4472 20.0952C15.2886 19.9049 14.2101 18.4775 14.2101 17.0183C14.2101 15.5592 14.9714 14.8296 15.2568 14.5441C15.5423 14.2586 15.8595 14.1634 16.0499 14.1634C16.2402 14.1634 16.4622 14.1952 16.6208 14.1952C16.8112 14.1952 17.0332 14.1 17.287 14.7027C17.5407 15.3054 18.1434 16.7645 18.2069 16.9232C18.2703 17.0818 18.3338 17.2404 18.2386 17.4307C18.1434 17.621 18.08 17.7479 17.9531 17.9382C17.7945 18.0968 17.6359 18.3189 17.509 18.4458C17.3504 18.6044 17.1918 18.763 17.3821 19.0484C17.5725 19.3339 18.1752 20.3173 19.0633 21.1103C20.2053 22.1254 21.1886 22.4426 21.4741 22.6012C21.7596 22.7598 21.9499 22.7281 22.1085 22.5377C22.2989 22.3474 22.8698 21.6813 23.0602 21.3641C23.2505 21.0786 23.4725 21.1103 23.7263 21.2055C24.0118 21.3006 25.471 22.0302 25.7882 22.1888C26.0737 22.3474 26.2957 22.4109 26.3591 22.5377C26.4543 22.6012 26.4543 23.2039 26.2323 23.9017Z" fill="white"/>
<path id="Vector_2" d="M29.9445 0.015625H10.0238C4.50436 0.015625 0 4.51999 0 10.0394V29.9918C0 35.4795 4.50436 39.9839 10.0238 39.9839H29.9762C35.4956 39.9839 40 35.4795 40 29.9601V10.0394C39.9683 4.51999 35.4639 0.015625 29.9445 0.015625ZM20.2062 31.8316C18.0492 31.8316 16.0508 31.2924 14.2744 30.309L7.48612 32.4661L9.70658 25.9633C8.59635 24.1235 7.96194 21.9665 7.96194 19.6826C7.96194 12.9577 13.4496 7.53347 20.2062 7.53347C26.9627 7.53347 32.4504 12.9577 32.4504 19.6826C32.4504 26.4074 26.9627 31.8316 20.2062 31.8316Z" fill="white"/>
</g>
</g>
<defs>
<clipPath id="clip0_161_689">
<rect width="40" height="40" fill="white"/>
</clipPath>
</defs>
</svg>
