<svg width="20" height="20" viewBox="0 0 20 20" fill="none" xmlns="http://www.w3.org/2000/svg">
<g id="Frame">
<g id="Group">
<path id="Vector" d="M10 18.7891C14.8541 18.7891 18.7891 14.8541 18.7891 10C18.7891 5.14593 14.8541 1.21094 10 1.21094C5.14593 1.21094 1.21094 5.14593 1.21094 10C1.21094 14.8541 5.14593 18.7891 10 18.7891Z" fill="#333333"/>
<g id="Group_2">
<path id="Vector_2" d="M9.83594 10.4648C10.1055 10.3516 10.3789 10.2539 10.6523 10.1719L10.8281 10.1172L10.7539 9.94922C10.6328 9.67969 10.5039 9.41016 10.3711 9.14453L10.3125 9.02734L10.1836 9.0625C8.58594 9.52734 7.12891 9.64062 6.1875 9.65625H5.94922C5.73047 9.65625 5.50781 9.65234 5.29688 9.64062L5.13672 9.63281L5.12891 9.79297C5.125 9.86328 5.125 9.92969 5.125 9.98828C5.125 11.1992 5.57422 12.3633 6.39063 13.2617L6.53125 13.418L6.64453 13.2383C6.67578 13.1914 6.70703 13.1406 6.73828 13.0938C7.53125 11.8906 8.60547 10.9766 9.83594 10.4648ZM5.94922 9.17969C6.03125 9.17969 6.11328 9.17969 6.19531 9.17578C7.05859 9.16016 8.39844 9.05859 9.875 8.64844L10.0742 8.59375L9.97266 8.41406C9.41797 7.43359 8.8125 6.48828 8.17188 5.60547L8.09375 5.5L7.97266 5.55469C6.57422 6.19531 5.54688 7.47266 5.22656 8.96875L5.1875 9.15625L5.37891 9.16406C5.5625 9.17578 5.75781 9.17969 5.94922 9.17969ZM10.4727 8.33203L10.5391 8.45312L10.668 8.40625C11.9844 7.92578 12.8281 7.17187 13.3047 6.62891L13.4063 6.51172L13.2891 6.40625C12.3906 5.57422 11.2227 5.11719 10 5.11719C9.58984 5.11719 9.18359 5.16797 8.79297 5.26953L8.56641 5.32812L8.70313 5.51953C9.32812 6.40234 9.92578 7.34766 10.4727 8.33203ZM10.9375 8.82031L10.7695 8.88281L10.8477 9.04297C10.9844 9.31641 11.1172 9.59766 11.2422 9.88281L11.293 10L11.418 9.97266C11.7461 9.90625 12.0703 9.86328 12.3906 9.84375C13.0664 9.80078 13.7227 9.85547 14.3516 10.0117C14.457 10.0391 14.5625 10.0664 14.668 10.0977L14.8789 10.1602L14.875 9.94141C14.8633 8.87109 14.5117 7.85938 13.8555 7.01172L13.7383 6.85938L13.6094 7.00391C13.1211 7.55469 12.2578 8.3125 10.9375 8.82031Z" fill="white"/>
<path id="Vector_3" d="M11.9102 13.4717C11.7031 12.5342 11.4219 11.6045 11.0664 10.7022L11.0117 10.5654L10.8711 10.6084C10.5898 10.6904 10.3047 10.792 10.0234 10.9131C8.875 11.3897 7.90625 12.21 7.15234 13.3545C7.08984 13.4483 7.03125 13.542 6.96875 13.6436L6.89453 13.7647L7.00781 13.8506C7.87109 14.5264 8.91016 14.8819 10.0039 14.8819C10.6914 14.8819 11.3555 14.7412 11.9805 14.4639L12.0938 14.4131L12.0742 14.2881C12.0234 14.0186 11.9688 13.7451 11.9102 13.4717ZM14.1992 10.4717C13.3945 10.2803 12.543 10.2608 11.6758 10.417L11.4844 10.4522L11.5547 10.6358C11.9023 11.5342 12.1836 12.4639 12.3867 13.3936C12.4258 13.5733 12.4648 13.7569 12.4961 13.9365L12.543 14.1787L12.7461 14.0381C13.8477 13.2881 14.6016 12.1084 14.8164 10.7998L14.8398 10.667L14.7109 10.624C14.543 10.5615 14.3711 10.5108 14.1992 10.4717Z" fill="white"/>
</g>
</g>
</g>
</svg>
