<svg xmlns="http://www.w3.org/2000/svg" width="25" height="24" viewBox="0 0 25 24" fill="none">
  <path fill-rule="evenodd" clip-rule="evenodd" d="M12.002 2C15.872 2 19.002 5.13 19.002 9C19.002 14.25 12.002 22 12.002 22C12.002 22 5.00195 14.25 5.00195 9C5.00195 5.13 8.13195 2 12.002 2ZM7.00195 9C7.00195 11.85 9.92195 16.21 12.002 18.88C14.122 16.19 17.002 11.88 17.002 9C17.002 6.24 14.762 4 12.002 4C9.24195 4 7.00195 6.24 7.00195 9ZM12.002 11.5C10.6212 11.5 9.50195 10.3807 9.50195 9C9.50195 7.61929 10.6212 6.5 12.002 6.5C13.3827 6.5 14.502 7.61929 14.502 9C14.502 10.3807 13.3827 11.5 12.002 11.5Z" fill="white"/>
</svg>