<svg width="150" height="150" viewBox="0 0 150 150" fill="none" xmlns="http://www.w3.org/2000/svg">
<g id="Frame">
<g id="Group">
<path id="Vector" d="M100.781 105.469V92.475C97.9223 92.2132 95.2126 91.0804 93.018 89.2295C90.8234 87.3786 89.2497 84.8988 88.5094 82.125L86.7188 83.9062V96.0937C86.7225 99.2006 87.9583 102.179 90.1552 104.376C92.3521 106.573 95.3306 107.809 98.4375 107.812C99.0591 107.812 99.6552 107.566 100.095 107.126C100.534 106.686 100.781 106.09 100.781 105.469Z" fill="black"/>
<path id="Vector_2" d="M56.2766 74.7332C56.7169 74.5122 57.2157 74.4356 57.7021 74.5143C58.1885 74.593 58.6377 74.8229 58.9859 75.1715L63.282 79.4676V77.3441C63.2786 75.8052 63.5784 74.2807 64.1642 72.8576C64.75 71.4345 65.6103 70.1408 66.6961 69.0502C68.889 66.8477 71.867 65.6064 74.975 65.5996C78.083 65.5928 81.0664 66.8209 83.269 69.0137C85.4715 71.2066 86.7127 74.1846 86.7195 77.2926L88.8406 75.1715C89.1883 74.8198 89.6384 74.587 90.1264 74.5066C90.6144 74.4262 91.1154 74.5023 91.5575 74.7239C91.9997 74.9455 92.3604 75.3013 92.5881 75.7404C92.8157 76.1794 92.8987 76.6793 92.825 77.1684C92.5494 79.1156 92.8931 81.1001 93.8076 82.8412C94.722 84.5823 96.1608 85.9917 97.9203 86.8701C99.6799 87.7484 101.671 88.0512 103.612 87.7356C105.553 87.4199 107.346 86.5018 108.737 85.1112C110.127 83.7206 111.045 81.9279 111.361 79.9868C111.677 78.0457 111.374 76.0545 110.495 74.2949C109.617 72.5354 108.208 71.0966 106.467 70.1822C104.726 69.2678 102.741 68.924 100.794 69.1996C100.305 69.2733 99.8048 69.1904 99.3658 68.9627C98.9267 68.735 98.5709 68.3743 98.3493 67.9321C98.1277 67.49 98.0516 66.989 98.132 66.501C98.2124 66.013 98.4451 65.5629 98.7969 65.2152L113.71 50.2785L103.205 39.7762C102.236 41.8063 100.793 43.5741 98.9992 44.9313C97.2049 46.2884 95.1112 47.1953 92.8939 47.5757C90.6766 47.9561 88.4003 47.799 86.2563 47.1176C84.1123 46.4361 82.163 45.2502 80.5722 43.6594C78.9814 42.0686 77.7955 40.1194 77.114 37.9753C76.4326 35.8313 76.2755 33.5551 76.6559 31.3377C77.0364 29.1204 77.9432 27.0267 79.3004 25.2325C80.6575 23.4382 82.4254 21.9957 84.4555 21.0262L73.9227 10.5332L58.9859 25.4465C58.6382 25.7982 58.1882 26.0309 57.7001 26.1113C57.2121 26.1917 56.7112 26.1157 56.269 25.8941C55.8269 25.6725 55.4661 25.3167 55.2385 24.8776C55.0108 24.4385 54.9279 23.9387 55.0016 23.4496C55.2061 22.0117 55.0737 20.5459 54.6149 19.1679C54.1561 17.7899 53.3835 16.5373 52.3578 15.509C50.5709 13.8067 48.1976 12.8572 45.7297 12.8572C43.2618 12.8572 40.8884 13.8067 39.1016 15.509C37.7159 16.901 36.8024 18.693 36.49 20.6321C36.1777 22.5712 36.4823 24.5595 37.3607 26.3161C38.2392 28.0728 39.6472 29.5093 41.386 30.4226C43.1248 31.336 45.1066 31.6802 47.0516 31.4066C47.5406 31.333 48.0405 31.4159 48.4795 31.6435C48.9186 31.8712 49.2744 32.2319 49.496 32.6741C49.7176 33.1163 49.7937 33.6172 49.7133 34.1052C49.6329 34.5932 49.4002 35.0433 49.0484 35.391L34.1328 50.2973L49.0508 65.234C49.4028 65.5818 49.6357 66.0321 49.7161 66.5204C49.7965 67.0087 49.7202 67.51 49.4983 67.9523C49.2764 68.3946 48.9201 68.7553 48.4806 68.9828C48.0411 69.2102 47.5408 69.2927 47.0516 69.2184C45.1044 68.9428 43.1198 69.2865 41.3787 70.2009C39.6376 71.1153 38.2282 72.5541 37.3498 74.3137C36.4715 76.0732 36.1687 78.0645 36.4844 80.0056C36.8 81.9467 37.7181 83.7394 39.1087 85.13C40.4993 86.5206 42.292 87.4387 44.2331 87.7543C46.1742 88.07 48.1654 87.7672 49.925 86.8888C51.6845 86.0105 53.1233 84.601 54.0377 82.86C54.9522 81.1189 55.2959 79.1343 55.0203 77.1871C54.9436 76.6978 55.0238 76.1968 55.2495 75.7559C55.4752 75.3151 55.8347 74.957 56.2766 74.7332Z" fill="#FF3E54"/>
<path id="Vector_3" d="M82.7719 136.245L85.1156 131.557C86.2497 129.278 86.8399 126.767 86.8399 124.221C86.8399 121.675 86.2497 119.164 85.1156 116.885L84.2578 115.165C82.7971 112.234 82.035 109.004 82.0312 105.729V77.3438C82.0312 75.479 81.2905 73.6906 79.9718 72.3719C78.6532 71.0533 76.8648 70.3125 75 70.3125C73.1352 70.3125 71.3468 71.0533 70.0282 72.3719C68.7095 73.6906 67.9688 75.479 67.9688 77.3438V110.156C67.9688 110.778 67.7218 111.374 67.2823 111.814C66.8427 112.253 66.2466 112.5 65.625 112.5C65.0034 112.5 64.4073 112.253 63.9677 111.814C63.5282 111.374 63.2812 110.778 63.2812 110.156V86.0954L59.3109 82.1274C58.5119 85.1158 56.7481 87.7565 54.2937 89.6392C51.8392 91.5219 48.8316 92.541 45.7383 92.5383C45.4898 92.5383 45.2484 92.5149 45.0023 92.5032L39.2695 109.003C38.7963 110.016 38.5683 111.126 38.6042 112.243C38.64 113.361 38.9386 114.454 39.4758 115.434C39.5181 115.51 39.5556 115.588 39.5883 115.669L47.8125 135.131C48.7333 136.85 49.2163 138.769 49.2188 140.719V142.969H82.0312V139.388C82.0322 138.297 82.2857 137.221 82.7719 136.245ZM142.969 53.9063H128.906C128.285 53.9063 127.689 53.6594 127.249 53.2198C126.809 52.7803 126.562 52.1841 126.562 51.5625C126.562 50.9409 126.809 50.3448 127.249 49.9053C127.689 49.4657 128.285 49.2188 128.906 49.2188H142.969C143.59 49.2188 144.186 49.4657 144.626 49.9053C145.066 50.3448 145.312 50.9409 145.312 51.5625C145.312 52.1841 145.066 52.7803 144.626 53.2198C144.186 53.6594 143.59 53.9063 142.969 53.9063ZM126.373 26.9532C125.857 26.9531 125.355 26.7829 124.946 26.4688C124.537 26.1547 124.242 25.7144 124.109 25.216C123.975 24.7177 124.01 24.1892 124.207 23.7126C124.405 23.2359 124.754 22.8377 125.201 22.5797L137.388 15.5485C137.926 15.2426 138.563 15.1619 139.161 15.3241C139.758 15.4862 140.267 15.8781 140.576 16.414C140.886 16.95 140.971 17.5867 140.813 18.185C140.654 18.7834 140.266 19.2948 139.732 19.6079L127.545 26.6391C127.189 26.8457 126.784 26.954 126.373 26.9532ZM138.548 87.8907C138.137 87.8915 137.732 87.7832 137.377 87.5766L125.189 80.5454C124.92 80.3926 124.685 80.1882 124.495 79.9439C124.306 79.6996 124.167 79.4203 124.086 79.122C124.005 78.8237 123.983 78.5123 124.023 78.2058C124.063 77.8993 124.163 77.6037 124.318 77.336C124.472 77.0683 124.678 76.8338 124.924 76.6461C125.169 76.4583 125.45 76.321 125.748 76.242C126.047 76.163 126.359 76.1439 126.665 76.1857C126.971 76.2276 127.266 76.3297 127.533 76.486L139.72 83.5172C140.167 83.7752 140.516 84.1734 140.714 84.6501C140.911 85.1267 140.946 85.6552 140.812 86.1535C140.679 86.6519 140.384 87.0922 139.975 87.4063C139.566 87.7204 139.064 87.8906 138.548 87.8907ZM21.0938 53.9063H7.03125C6.40965 53.9063 5.81351 53.6594 5.37397 53.2198C4.93443 52.7803 4.6875 52.1841 4.6875 51.5625C4.6875 50.9409 4.93443 50.3448 5.37397 49.9053C5.81351 49.4657 6.40965 49.2188 7.03125 49.2188H21.0938C21.7154 49.2188 22.3115 49.4657 22.751 49.9053C23.1906 50.3448 23.4375 50.9409 23.4375 51.5625C23.4375 52.1841 23.1906 52.7803 22.751 53.2198C22.3115 53.6594 21.7154 53.9063 21.0938 53.9063ZM23.6273 26.9532C23.2158 26.954 22.8114 26.8457 22.4555 26.6391L10.268 19.6079C9.73405 19.2948 9.34561 18.7834 9.18741 18.185C9.02922 17.5867 9.11411 16.95 9.42357 16.414C9.73304 15.8781 10.2419 15.4862 10.8392 15.3241C11.4365 15.1619 12.0737 15.2426 12.6117 15.5485L24.7992 22.5797C25.246 22.8377 25.5952 23.2359 25.7926 23.7126C25.99 24.1892 26.0247 24.7177 25.8911 25.216C25.7576 25.7144 25.4634 26.1547 25.0541 26.4688C24.6448 26.7829 24.1433 26.9531 23.6273 26.9532ZM11.4516 87.8907C10.9356 87.8906 10.4341 87.7204 10.0248 87.4063C9.61554 87.0922 9.32131 86.6519 9.18778 86.1535C9.05425 85.6552 9.08888 85.1267 9.2863 84.6501C9.48372 84.1734 9.8329 83.7752 10.2797 83.5172L22.4672 76.486C22.7338 76.3297 23.0288 76.2276 23.335 76.1857C23.6413 76.1439 23.9528 76.163 24.2516 76.242C24.5504 76.321 24.8307 76.4583 25.0762 76.6461C25.3217 76.8338 25.5277 77.0683 25.6823 77.336C25.8368 77.6037 25.9369 77.8993 25.9767 78.2058C26.0166 78.5123 25.9954 78.8237 25.9144 79.122C25.8334 79.4203 25.6942 79.6996 25.5048 79.9439C25.3155 80.1882 25.0796 80.3926 24.8109 80.5454L12.6234 87.5766C12.2675 87.7832 11.8631 87.8915 11.4516 87.8907Z" fill="#3E3E3E"/>
</g>
</g>
</svg>
