<svg width="150" height="150" viewBox="0 0 150 150" fill="none" xmlns="http://www.w3.org/2000/svg">
<g id="Frame" clip-path="url(#clip0_161_586)">
<g id="Group">
<path id="Vector" d="M105.622 60.7468C111.226 68.2076 114.55 77.4738 114.55 87.5021C114.55 112.118 94.5242 132.144 69.9087 132.144C45.2932 132.144 25.2669 112.118 25.2669 87.5021C25.2669 61.2712 47.9571 40.4482 74.3728 43.0829V25.0039H69.9087C35.447 25.0039 7.41016 53.0404 7.41016 87.5024C7.41016 121.964 35.447 150.001 69.9087 150.001C104.37 150.001 132.407 121.964 132.407 87.5024V38.3964H105.622V60.7468Z" fill="#3E3E3E"/>
<path id="Vector_2" d="M74.3737 52.0663V60.7161H65.4453V52.0663C58.9339 52.8821 52.9623 55.4579 48.0222 59.301L54.1262 65.405L47.813 71.7182L41.709 65.6142C37.8662 70.5543 35.2901 76.5256 34.4746 83.0373H43.1244V91.9657H34.4746C35.2904 98.4771 37.8662 104.448 41.709 109.389L47.813 103.285L54.1262 109.598L48.0222 115.702C52.9623 119.545 58.9336 122.121 65.4453 122.937V114.287H74.3737V122.937C80.8854 122.121 86.8564 119.545 91.7968 115.702L85.6927 109.598L92.006 103.285L98.11 109.389C101.953 104.448 104.529 98.4774 105.345 91.9657H96.6946V83.0373H105.345C104.529 76.5256 101.953 70.5543 98.11 65.6142L92.006 71.7182L85.6927 65.405L91.7968 59.301C86.8567 55.4582 80.8851 52.8821 74.3737 52.0663ZM74.3737 91.9657H56.5169V83.0373H65.4453V69.6448H74.3737V91.9657ZM119.015 0L95.4419 29.4672H142.589L119.015 0Z" fill="#FF3E54"/>
</g>
</g>
<defs>
<clipPath id="clip0_161_586">
<rect width="150" height="150" fill="white"/>
</clipPath>
</defs>
</svg>
