<svg width="150" height="150" viewBox="0 0 150 150" fill="none" xmlns="http://www.w3.org/2000/svg">
<g id="Frame" clip-path="url(#clip0_161_563)">
<g id="Group">
<path id="Vector" d="M120.434 58.4788C121.271 60.7865 123.816 61.9264 126.065 61.1053L142.656 55.0672C144.934 54.239 146.08 51.737 145.256 49.4581C144.441 47.1922 141.948 46.0119 139.652 46.8102H139.647C139.591 46.8187 139.57 46.836 139.536 46.853L123.061 52.8483C120.777 53.6765 119.601 56.1998 120.434 58.4788ZM126.111 26.4127L112.58 37.7681C110.722 39.3258 110.477 42.0981 112.039 43.9564C113.572 45.7927 116.342 46.0787 118.228 44.4972L131.759 33.1418C133.617 31.5841 133.862 28.8118 132.3 26.9535C130.747 25.0993 127.983 24.8547 126.111 26.4127ZM112.417 10.2635C110.319 9.04471 107.628 9.76981 106.414 11.8727L97.5817 27.1721C96.3671 29.275 97.0881 31.9615 99.191 33.1758C101.273 34.379 103.968 33.6832 105.195 31.5666L114.027 16.2672C115.241 14.1646 114.52 11.4781 112.417 10.2635ZM88.5179 23.8721L91.5865 6.18565C92.0113 3.79533 90.4149 1.51663 88.0246 1.09593C85.6129 0.640956 83.3512 2.26751 82.9349 4.65783L79.8663 22.3442C79.4415 24.7346 81.0379 27.0136 83.4282 27.434C85.7784 27.8646 88.0958 26.2849 88.5179 23.8721ZM59.516 75.649C54.924 78.4729 48.6328 82.3351 48.6328 92.579C48.6328 95.008 50.5983 96.9735 53.0273 96.9735H70.6053C73.0343 96.9735 74.9999 95.008 74.9999 92.579C74.9999 90.15 73.0343 88.1845 70.6053 88.1845H58.2931C59.3144 86.1803 61.2412 84.9059 64.1167 83.1419C68.7087 80.318 74.9999 76.4558 74.9999 66.212C74.9999 58.9423 69.086 53.0284 61.8163 53.0284C54.5466 53.0284 48.6328 58.9423 48.6328 66.212C48.6328 68.641 50.5983 70.6065 53.0273 70.6065C55.4563 70.6065 57.4218 68.641 57.4218 66.212C57.4218 63.7874 59.3917 61.8175 61.8163 61.8175C64.2409 61.8175 66.2108 63.7874 66.2108 66.212C66.2108 71.3146 64.0391 72.8767 59.516 75.649Z" fill="#FF3E54"/>
<path id="Vector_2" d="M75.8282 86.3606C76.2359 86.9251 76.7718 87.3848 77.3917 87.7019C78.0117 88.019 78.6981 88.1844 79.3945 88.1846H92.5781V92.5791C92.5781 95.0081 94.5436 96.9737 96.9726 96.9737C99.4016 96.9737 101.367 95.0081 101.367 92.5791V88.1846H105.762C108.191 88.1846 110.156 86.2191 110.156 83.7901C110.156 81.3611 108.191 79.3955 105.762 79.3955H101.367V66.2119C101.367 63.7829 99.4016 61.8174 96.9726 61.8174C94.5436 61.8174 92.5781 63.7829 92.5781 66.2119V79.3955H85.4926L92.3504 58.8133C93.1186 56.5088 91.8741 54.0198 89.5737 53.2557C87.2604 52.479 84.7842 53.7321 84.0161 56.0324L75.227 82.3996C75.006 83.0602 74.9452 83.7639 75.0497 84.4526C75.1543 85.1413 75.4211 85.7953 75.8282 86.3606Z" fill="#FF3E54"/>
<path id="Vector_3" d="M145.605 70.6062H136.816C134.389 70.6062 132.421 72.5732 132.421 75.0007C132.421 106.501 106.499 132.422 74.9996 132.422C43.4997 132.422 17.578 106.501 17.578 75.0007C17.578 65.1655 20.4072 55.9309 24.8114 47.8506L30.209 53.247C31.3741 54.4122 33.0731 54.8103 34.5906 54.3457C35.3515 54.1151 36.0356 53.6824 36.5699 53.0937C37.1042 52.5049 37.4687 51.7822 37.6246 51.0026L43.8387 19.932C44.1261 18.49 43.6755 17.0009 42.637 15.9623C41.5984 14.9237 40.1048 14.4945 38.6673 14.7605L7.59283 20.975C6.81321 21.1308 6.0905 21.4954 5.50176 22.0297C4.91302 22.564 4.48032 23.248 4.24978 24.0089C4.01959 24.7704 4.0002 25.58 4.19366 26.3515C4.38713 27.1231 4.7862 27.8278 5.34841 28.3905L11.9583 34.9996C4.5823 46.5557 0 60.2665 0 75.0007C0 116.26 33.7404 150 74.9996 150C116.259 150 149.999 116.26 149.999 75.0007C149.999 72.5729 148.032 70.6062 145.605 70.6062Z" fill="#3E3E3E"/>
<path id="Vector_4" d="M66.6564 27.4335C69.0468 27.0128 70.6432 24.7341 70.2184 22.3437L66.974 3.63151C66.5533 1.24118 64.2447 -0.359598 61.8843 0.0696007C59.4939 0.490304 57.8976 2.76901 58.3224 5.15935L61.5667 23.8716C61.99 26.2909 64.3115 27.8633 66.6564 27.4335Z" fill="#FF3E54"/>
</g>
</g>
<defs>
<clipPath id="clip0_161_563">
<rect width="150" height="150" fill="white"/>
</clipPath>
</defs>
</svg>
