<svg width="150" height="150" viewBox="0 0 150 150" fill="none" xmlns="http://www.w3.org/2000/svg">
<g id="Frame" clip-path="url(#clip0_161_607)">
<g id="Group">
<path id="Vector" d="M22.2656 132.422H39.8438C42.2725 132.422 44.2383 130.456 44.2383 128.027V92.5781C44.2383 90.1494 42.2725 88.1836 39.8438 88.1836H22.2656C19.8369 88.1836 17.8711 90.1494 17.8711 92.5781V128.027C17.8711 130.456 19.8369 132.422 22.2656 132.422ZM75 132.422C77.4287 132.422 79.3945 130.456 79.3945 128.027V66.2109C79.3945 63.7822 77.4287 61.8164 75 61.8164H57.4219C54.9932 61.8164 53.0273 63.7822 53.0273 66.2109V128.027C53.0273 130.456 54.9932 132.422 57.4219 132.422H75ZM145.605 61.8164H128.027C125.599 61.8164 123.633 63.7822 123.633 66.2109V128.027C123.633 130.456 125.599 132.422 128.027 132.422H145.605C148.034 132.422 150 130.456 150 128.027V66.2109C150 63.7822 148.034 61.8164 145.605 61.8164ZM110.156 132.422C112.585 132.422 114.551 130.456 114.551 128.027V83.7891C114.551 81.3604 112.585 79.3945 110.156 79.3945H92.5781C90.1494 79.3945 88.1836 81.3604 88.1836 83.7891V128.027C88.1836 130.456 90.1494 132.422 92.5781 132.422H110.156Z" fill="#3E3E3E"/>
<path id="Vector_2" d="M145.605 9.08203H128.027C125.599 9.08203 123.633 11.0479 123.633 13.4766C123.633 15.9053 125.599 17.8711 128.027 17.8711H134.997L107.015 45.5602C105.296 44.7372 103.396 44.2383 101.367 44.2383C97.8217 44.2383 94.6128 45.6606 92.2418 47.9449L79.2331 41.4413C79.2984 40.9116 79.3945 40.3907 79.3945 39.8438C79.3945 32.5743 73.4801 26.6602 66.2109 26.6602C58.9418 26.6602 53.0273 32.5746 53.0273 39.8438C53.0273 41.2125 53.2963 42.5068 53.6854 43.7484L38.3525 55.2451C36.2607 53.8477 33.7529 53.0273 31.0547 53.0273C23.7853 53.0273 17.8711 58.9418 17.8711 66.2109C17.8711 73.4801 23.7853 79.3945 31.0547 79.3945C38.3241 79.3945 44.2383 73.4801 44.2383 66.2109C44.2383 64.8422 43.9693 63.5479 43.5803 62.3062L58.9131 50.8096C61.0049 52.207 63.5127 53.0273 66.2109 53.0273C69.7564 53.0273 72.9653 51.605 75.3363 49.3207L88.345 55.8243C88.2797 56.354 88.1836 56.8749 88.1836 57.4219C88.1836 64.6913 94.0978 70.6055 101.367 70.6055C108.637 70.6055 114.551 64.691 114.551 57.4219C114.551 55.3928 114.052 53.4932 113.229 51.7743L141.211 24.085V31.0547C141.211 33.4834 143.177 35.4492 145.605 35.4492C148.034 35.4492 150 33.4834 150 31.0547V13.4766C150 11.0479 148.034 9.08203 145.605 9.08203Z" fill="#FF3E54"/>
<path id="Vector_3" d="M145.605 141.211H8.78906V4.39453C8.78906 1.96582 6.82324 0 4.39453 0C1.96582 0 0 1.96582 0 4.39453V145.605C0 148.034 1.96582 150 4.39453 150H145.605C148.034 150 150 148.034 150 145.605C150 143.177 148.034 141.211 145.605 141.211Z" fill="#3E3E3E"/>
</g>
</g>
<defs>
<clipPath id="clip0_161_607">
<rect width="150" height="150" fill="white"/>
</clipPath>
</defs>
</svg>
