<svg width="150" height="150" viewBox="0 0 150 150" fill="none" xmlns="http://www.w3.org/2000/svg">
<g id="Frame">
<g id="Group">
<path id="Vector" d="M131.47 58.627C133.129 57.6759 134.582 56.405 135.745 54.8879C136.909 53.3709 137.76 51.638 138.248 49.7896C139.246 46.043 138.734 42.1248 136.79 38.75C134.851 35.415 131.676 32.9793 127.952 31.9718C126.107 31.4742 124.181 31.3469 122.287 31.5972C120.392 31.8476 118.565 32.4706 116.913 33.4304C115.511 34.2312 114.281 35.2608 113.278 36.4334L88.6273 22.1906C89.1421 20.732 89.3995 19.1876 89.3995 17.5574C89.3995 9.5494 82.8758 3 74.8707 3C66.8627 3 60.3133 9.5494 60.3133 17.5574C60.3133 19.1876 60.5707 20.732 61.0826 22.1906L36.4609 36.4334C35.4313 35.2608 34.2015 34.2312 32.8001 33.4304C31.1529 32.47 29.3312 31.8464 27.441 31.596C25.5507 31.3456 23.6296 31.4734 21.7891 31.9718C18.0619 32.9707 14.8837 35.4085 12.9531 38.7496C11.0225 42.0906 10.4973 46.0615 11.4931 49.7896C11.9813 51.6381 12.8319 53.3713 13.9955 54.8884C15.1591 56.4055 16.6125 57.6763 18.2713 58.627C19.6441 59.4278 21.1313 59.9712 22.6757 60.2858V88.7428C21.1599 89.0288 19.6727 89.6008 18.2713 90.4016C14.9364 92.3307 12.5032 95.5042 11.5059 99.2254C10.5085 102.947 11.0285 106.912 12.9517 110.25C13.899 111.911 15.1687 113.367 16.6863 114.531C18.2039 115.695 19.9388 116.544 21.7891 117.028C23.0189 117.371 24.3059 117.543 25.5643 117.543C28.0811 117.543 30.5693 116.885 32.8001 115.598C34.2015 114.797 35.4313 113.768 36.4609 112.595C37.7193 111.165 38.6917 109.478 39.3209 107.619L39.5783 106.761C40.6079 103.014 40.0931 99.096 38.1483 95.7212C37.1095 93.9337 35.703 92.3873 34.0217 91.1843C32.3404 89.9812 30.4227 89.149 28.3957 88.7428V60.3144C28.7103 60.2286 28.9963 60.1714 29.3109 60.0856C33.0575 59.0846 36.2035 56.6822 38.1483 53.3074C40.0931 49.9326 40.6079 46.0144 39.5783 42.2678C39.4925 41.9532 39.4067 41.6672 39.2923 41.3812L63.9426 27.1384C66.6339 30.17 70.5235 32.0862 74.8707 32.0862C79.2179 32.0862 83.1046 30.17 85.7673 27.1384L110.418 41.3812C109.754 43.3382 109.515 45.4142 109.717 47.4708C109.919 49.5274 110.558 51.5172 111.59 53.3074C112.622 55.0926 114.024 56.6363 115.701 57.835C117.379 59.0337 119.294 59.8596 121.317 60.2572V88.7428C119.294 89.1517 117.381 89.9852 115.705 91.1881C114.028 92.3911 112.626 93.9361 111.59 95.7212C110.558 97.5063 109.92 99.4913 109.718 101.543C109.515 103.595 109.754 105.667 110.418 107.619L85.7673 121.862C84.4093 120.306 82.7339 119.06 80.8538 118.206C78.9737 117.353 76.9326 116.912 74.8678 116.914C70.5235 116.914 66.6339 118.83 63.9426 121.862L39.3209 107.619C38.6917 109.478 37.7193 111.165 36.4609 112.595L61.0826 126.809C60.5636 128.308 60.3035 129.885 60.3133 131.471C60.3133 139.479 66.8627 146 74.8678 146C82.8758 146 89.3995 139.479 89.3995 131.471C89.3995 129.841 89.1421 128.268 88.6273 126.809L113.278 112.595C114.281 113.768 115.511 114.769 116.913 115.598C119.172 116.885 121.66 117.543 124.177 117.543C125.433 117.543 126.694 117.371 127.952 117.028C129.801 116.54 131.534 115.689 133.051 114.525C134.568 113.362 135.839 111.908 136.79 110.25C138.712 106.912 139.232 102.947 138.234 99.2258C137.237 95.5047 134.804 92.3312 131.47 90.4016C130.04 89.5722 128.553 89.0288 127.037 88.7142V60.3144C128.553 59.9998 130.04 59.4564 131.47 58.627Z" fill="#3E3E3E"/>
<path id="Vector_2" d="M41.9666 66.6946C40.508 66.8347 39.3926 68.0674 39.3926 69.5232V79.5074C39.3926 80.9632 40.508 82.1958 41.9666 82.336L48.087 82.9366C48.6046 84.5124 49.231 86.0254 49.9746 87.4868L46.085 92.263C45.6332 92.8088 45.4005 93.5031 45.4322 94.2109C45.464 94.9187 45.7578 95.5894 46.2566 96.0926L53.3208 103.128C54.3504 104.189 56.0092 104.246 57.1532 103.328L61.9008 99.413C63.3594 100.185 64.8752 100.812 66.4482 101.298L67.0488 107.418C67.1199 108.126 67.4524 108.782 67.9812 109.258C68.51 109.734 69.1973 109.996 69.9088 109.992H79.8616C80.573 109.996 81.2603 109.734 81.7891 109.258C82.318 108.782 82.6504 108.126 82.7216 107.418L83.3222 101.298C84.8666 100.812 86.411 100.185 87.8696 99.413L92.6172 103.328C93.166 103.779 93.8632 104.008 94.5721 103.97C95.281 103.933 95.9506 103.633 96.4496 103.128L103.514 96.0926C104.543 95.0344 104.629 93.3756 103.685 92.263L99.7672 87.4868C100.539 86.0254 101.169 84.5124 101.655 82.9366L107.804 82.336C109.262 82.1958 110.378 80.9632 110.378 79.5074V69.5232C110.378 68.0674 109.262 66.8347 107.804 66.6946L101.655 66.094C101.169 64.5216 100.537 62.9981 99.7672 61.5437L103.685 56.7675C104.629 55.6521 104.543 53.9647 103.514 52.938L96.4496 45.9024C95.954 45.3917 95.2838 45.0871 94.5732 45.0494C93.8626 45.0118 93.1639 45.2439 92.6172 45.6993L87.8696 49.6175C86.4132 48.8536 84.8914 48.2219 83.3222 47.7299L82.7216 41.6124C82.6571 40.8993 82.3276 40.2364 81.7981 39.7545C81.2685 39.2726 80.5775 39.0069 79.8616 39.0098H69.9088C68.4216 39.0098 67.1946 40.1252 67.0488 41.6124L66.4482 47.7299C64.8752 48.219 63.3594 48.8453 61.9008 49.6175L57.1532 45.6993C56.6061 45.2445 55.9076 45.0128 55.1972 45.0504C54.4868 45.0881 53.8167 45.3923 53.3208 45.9024L46.2566 52.938C45.7578 53.4412 45.464 54.1119 45.4322 54.8197C45.4005 55.5275 45.6332 56.2218 46.085 56.7675L49.9746 61.5437C49.231 63.0052 48.6046 64.5181 48.087 66.094L41.9666 66.6946ZM74.8823 58.9526C83.4623 58.9526 90.4407 65.9338 90.4407 74.5139C90.4407 83.0939 83.4623 90.0723 74.8823 90.0723C66.3023 90.0723 59.3239 83.0939 59.3239 74.5139C59.3239 65.9338 66.3023 58.9526 74.8823 58.9526Z" fill="#FF3E54"/>
<path id="Vector_3" d="M74.8521 84.3476C80.2775 84.3476 84.6905 79.9318 84.6905 74.5064C84.6905 69.081 80.2775 64.668 74.8521 64.668C69.4267 64.668 65.0137 69.081 65.0137 74.5064C65.0159 77.1153 66.0531 79.6167 67.8976 81.4617C69.7421 83.3067 72.2432 84.3446 74.8521 84.3476Z" fill="black"/>
</g>
</g>
</svg>
