<svg width="150" height="150" viewBox="0 0 150 150" fill="none" xmlns="http://www.w3.org/2000/svg">
<g id="Frame" clip-path="url(#clip0_161_575)">
<g id="Group">
<path id="Vector" d="M96.8201 79.3945C94.7784 89.4114 85.6094 96.9727 74.9992 96.9727C64.3891 96.9727 55.513 89.4114 53.4713 79.3945H44.6816C46.837 94.2627 59.5436 105.762 74.9992 105.762C90.4548 105.762 103.454 94.2627 105.61 79.3945H96.8201Z" fill="#FF3E54"/>
<path id="Vector_2" d="M114.4 79.3945C112.181 99.1157 95.3048 114.551 75 114.551C54.6952 114.551 38.112 99.1157 35.8934 79.3945H0V83.7891C0 85.6816 1.21465 87.3639 3.0085 87.9604L21.0899 93.8613C21.8496 96.0158 22.6521 97.977 23.5104 99.7878L15.1676 116.551C14.7577 117.375 14.6171 118.307 14.7657 119.216C14.9143 120.125 15.3446 120.964 15.9958 121.615L28.3854 134.004C29.7287 135.347 31.7628 135.665 33.4494 134.832L50.2122 126.49C52.0233 127.348 53.9845 128.15 56.1387 128.91L62.0396 146.992C62.3314 147.867 62.8912 148.629 63.6398 149.169C64.3884 149.709 65.2879 150 66.2109 150H84.082C85.9746 150 87.6568 148.785 88.2533 146.992L94.1543 128.91C96.3088 128.15 98.2699 127.348 100.081 126.49L116.844 134.832C118.53 135.669 120.569 135.347 121.908 134.004L134.297 121.615C134.948 120.964 135.379 120.125 135.527 119.216C135.676 118.307 135.535 117.375 135.125 116.551L126.783 99.7878C127.641 97.9767 128.443 96.0155 129.203 93.8613L146.992 87.9604C147.867 87.6686 148.629 87.1088 149.169 86.3602C149.709 85.6116 150 84.7121 150 83.7891V79.3945H114.4Z" fill="#FF3E54"/>
<path id="Vector_3" d="M62.6259 79.3945C64.4461 84.4986 69.2783 88.1836 75 88.1836C80.7217 88.1836 85.8469 84.4986 87.6671 79.3945H62.6259ZM75 0C65.3054 0 57.4219 7.8835 57.4219 17.5781C57.4219 27.2728 65.3054 35.1562 75 35.1562C84.6946 35.1562 92.8711 27.2728 92.8711 17.5781C92.8711 7.8835 84.6946 0 75 0ZM119.238 0C109.544 0 101.66 7.8835 101.66 17.5781C101.66 27.2728 109.544 35.1562 119.238 35.1562C128.933 35.1562 136.816 27.2728 136.816 17.5781C136.816 7.8835 128.933 0 119.238 0ZM31.0547 0C21.3601 0 13.4766 7.8835 13.4766 17.5781C13.4766 27.2728 21.3601 35.1562 31.0547 35.1562C40.7493 35.1562 48.6328 27.2728 48.6328 17.5781C48.6328 7.8835 40.7493 0 31.0547 0ZM134.228 39.2235C129.966 42.1852 124.811 43.9453 119.238 43.9453C113.689 43.9453 108.55 42.2039 104.298 39.2648C102.37 40.3714 100.518 41.6156 98.8406 43.1159C107.387 49.5044 113.32 59.4817 114.575 70.6055H150V66.2109C150 54.7198 143.59 44.5043 134.228 39.2235ZM75 43.9453C59.5289 43.9453 46.6887 55.7183 44.5515 70.6055H105.741C103.604 55.7183 90.4711 43.9453 75 43.9453ZM45.9952 39.2648C41.7428 42.2039 36.6041 43.9453 31.0547 43.9453C25.4821 43.9453 20.3273 42.1852 16.0649 39.2235C6.70342 44.5043 0 54.7198 0 66.2109V70.6055H35.7176C36.9727 59.4817 42.9062 49.5044 51.4523 43.1159C49.7748 41.6156 47.9227 40.3714 45.9952 39.2648Z" fill="black"/>
</g>
</g>
<defs>
<clipPath id="clip0_161_575">
<rect width="150" height="150" fill="white"/>
</clipPath>
</defs>
</svg>
