<svg width="150" height="150" viewBox="0 0 150 150" fill="none" xmlns="http://www.w3.org/2000/svg">
<g id="Frame">
<g id="Group">
<g id="Human Resource">
<path id="Vector" d="M75.0004 29.8621C80.6453 29.8621 85.2215 25.286 85.2215 19.641C85.2215 13.9961 80.6453 9.41992 75.0004 9.41992C69.3554 9.41992 64.7793 13.9961 64.7793 19.641C64.7793 25.286 69.3554 29.8621 75.0004 29.8621Z" fill="#FF3E54"/>
<path id="Vector_2" d="M90.2344 39.7031V57.75C90.2347 58.8617 89.8163 59.9328 89.0625 60.75L86.5547 63.375V87.5625C86.5654 88.7266 86.1157 89.8477 85.3036 90.6818C84.4915 91.5159 83.3827 91.9953 82.2188 92.0156H67.7812C66.6173 91.9953 65.5085 91.5159 64.6964 90.6818C63.8843 89.8477 63.4346 88.7266 63.4453 87.5625V63.375L60.9375 60.75C60.1837 59.9328 59.7653 58.8617 59.7656 57.75V39.7031C59.7687 38.7532 59.9599 37.8132 60.3281 36.9375C60.8211 35.7483 61.6526 34.73 62.7193 34.0092C63.7859 33.2884 65.0408 32.8967 66.3281 32.8828H83.6719C84.9592 32.8967 86.2141 33.2884 87.2807 34.0092C88.3474 34.73 89.1788 35.7483 89.6719 36.9375C90.0401 37.8132 90.2313 38.7532 90.2344 39.7031Z" fill="#FF3E54"/>
<path id="Vector_3" d="M96.0934 34.3684C100.991 34.3684 104.962 30.3977 104.962 25.4996C104.962 20.6015 100.991 16.6309 96.0934 16.6309C91.1953 16.6309 87.2246 20.6015 87.2246 25.4996C87.2246 30.3977 91.1953 34.3684 96.0934 34.3684Z" fill="#FF3E54"/>
<path id="Vector_4" d="M53.9059 34.3684C58.8039 34.3684 62.7746 30.3977 62.7746 25.4996C62.7746 20.6015 58.8039 16.6309 53.9059 16.6309C49.0078 16.6309 45.0371 20.6015 45.0371 25.4996C45.0371 30.3977 49.0078 34.3684 53.9059 34.3684Z" fill="#FF3E54"/>
<path id="Vector_5" d="M109.124 42.9844V57.9375C109.126 58.9598 108.731 59.9429 108.022 60.6797L106.053 62.7656V82.6172C106.062 83.1483 105.965 83.6758 105.769 84.1696C105.574 84.6634 105.282 85.1136 104.912 85.4946C104.542 85.8756 104.1 86.1799 103.612 86.3899C103.125 86.6 102.6 86.7117 102.069 86.7188H91.2408V65.25L92.4596 63.9609C94.0541 62.288 94.9364 60.0611 94.9205 57.75V39.7031C94.9236 38.7699 94.8054 37.8403 94.5689 36.9375H103.264C104.842 36.9653 106.345 37.6172 107.443 38.7506C108.541 39.8839 109.146 41.4064 109.124 42.9844ZM57.5377 63.9609L58.7564 65.25V86.7188H47.9283C47.3972 86.7117 46.8727 86.6 46.3848 86.3899C45.8969 86.1799 45.4553 85.8756 45.0851 85.4946C44.715 85.1136 44.4237 84.6634 44.2279 84.1696C44.0321 83.6758 43.9356 83.1483 43.9439 82.6172V62.7656L41.9752 60.6797C41.2665 59.9429 40.8716 58.9598 40.8736 57.9375V42.9844C40.8517 41.4064 41.456 39.8839 42.5542 38.7506C43.6524 37.6172 45.1551 36.9653 46.733 36.9375H55.4283C55.1918 37.8403 55.0737 38.7699 55.0767 39.7031V57.75C55.065 60.0603 55.9467 62.2857 57.5377 63.9609Z" fill="#FF3E54"/>
<path id="Vector_6" d="M66.0469 124.172H36.75C35.4556 124.172 34.4062 125.221 34.4062 126.516V138.234C34.4062 139.529 35.4556 140.578 36.75 140.578H66.0469C67.3413 140.578 68.3906 139.529 68.3906 138.234V126.516C68.3906 125.221 67.3413 124.172 66.0469 124.172Z" fill="black"/>
<path id="Vector_7" d="M65.2261 119.484H36.7496C36.4917 119.484 36.2339 119.507 35.9761 119.531C34.1011 117.445 29.3199 113.015 15.4917 99.5385C13.8604 97.9249 12.813 95.8137 12.5152 93.5385C10.5466 78.3324 10.9658 62.9121 13.7574 47.8354C13.8102 47.5566 13.9272 47.294 14.0991 47.0683C14.271 46.8425 14.493 46.6599 14.7477 46.5348C15.0024 46.4098 15.2827 46.3457 15.5664 46.3477C15.8501 46.3497 16.1295 46.4177 16.3824 46.5463C20.1019 48.2902 23.0387 51.3568 24.6202 55.1482C26.2018 58.9395 26.3147 63.184 24.9371 67.0542C24.4314 68.5527 24.4813 70.1831 25.0777 71.6479C25.2992 72.758 25.6128 73.8477 26.0152 74.9057C20.9292 76.0073 19.4527 82.851 23.4605 87.3745L35.1324 100.546C35.5507 100.982 36.121 101.239 36.7244 101.264C37.3278 101.29 37.9177 101.081 38.371 100.682C38.8244 100.283 39.1063 99.7247 39.1579 99.123C39.2095 98.5213 39.0268 97.9229 38.648 97.4526L26.9527 84.2573C23.8589 80.7651 27.8902 75.4448 33.2808 80.7885C36.5386 83.9995 39.937 87.0698 43.2652 90.2104C44.7417 91.687 46.9449 91.3354 49.1011 91.7573C52.9631 92.4771 56.5171 94.348 59.2964 97.1245C65.7417 103.523 65.3433 110.906 65.2261 119.484Z" fill="black"/>
<path id="Vector_8" d="M113.25 124.172H83.9531C82.6587 124.172 81.6094 125.221 81.6094 126.516V138.234C81.6094 139.529 82.6587 140.578 83.9531 140.578H113.25C114.544 140.578 115.594 139.529 115.594 138.234V126.516C115.594 125.221 114.544 124.172 113.25 124.172Z" fill="black"/>
<path id="Vector_9" d="M137.485 93.5385C137.187 95.8137 136.14 97.9249 134.508 99.5385C120.68 113.015 115.899 117.445 114.047 119.531H114.024C113.766 119.507 113.508 119.484 113.25 119.484H84.7738C84.6566 110.906 84.2582 103.523 90.7035 97.1245C93.4828 94.348 97.0368 92.4771 100.899 91.7573C102.985 91.3588 105.282 91.6635 106.735 90.2104C110.063 87.0698 113.461 83.9995 116.719 80.7885C122.11 75.4448 126.141 80.7651 123.047 84.2573L111.352 97.4526C110.973 97.9229 110.79 98.5213 110.842 99.123C110.894 99.7247 111.176 100.283 111.629 100.682C112.082 101.081 112.672 101.29 113.275 101.264C113.879 101.239 114.449 100.982 114.868 100.546L126.539 87.3745C130.547 82.851 129.071 76.0073 123.985 74.9057C124.387 73.8477 124.701 72.758 124.922 71.6479C125.519 70.1831 125.568 68.5527 125.063 67.0542C123.685 63.184 123.798 58.9395 125.38 55.1482C126.961 51.3568 129.898 48.2902 133.618 46.5463C133.87 46.4177 134.15 46.3497 134.434 46.3477C134.717 46.3457 134.998 46.4098 135.252 46.5348C135.507 46.6599 135.729 46.8425 135.901 47.0683C136.073 47.294 136.19 47.5566 136.243 47.8354C139.034 62.9121 139.453 78.3324 137.485 93.5385Z" fill="black"/>
</g>
</g>
</g>
</svg>
