<svg width="80" height="80" viewBox="0 0 80 80" fill="none" xmlns="http://www.w3.org/2000/svg">
<rect width="80" height="80" rx="5" fill="white"/>
<path fill-rule="evenodd" clip-rule="evenodd" d="M53.211 25.5495C53.6416 25.6598 54.0543 25.8309 54.4365 26.0577L55.9705 24.947L57.1979 26.1745L56.0873 27.7085C56.3141 28.0907 56.4852 28.5034 56.5954 28.9339L58.4649 29.2332V30.969L56.5955 31.2683C56.4853 31.6989 56.3142 32.1115 56.0873 32.4937L57.1979 34.0277L55.9705 35.2552L54.4365 34.1445C54.0543 34.3713 53.6416 34.5424 53.211 34.6526L52.9118 36.5221H51.1759L50.8766 34.6527C50.446 34.5425 50.0333 34.3714 49.6511 34.1445L48.1171 35.2552L46.8897 34.0277L48.0003 32.4937C47.7735 32.1115 47.6024 31.6988 47.4923 31.2683L45.6227 30.969V29.2332L47.4923 28.9339C47.6024 28.5033 47.7735 28.0906 48.0003 27.7084L46.8897 26.1744L48.1171 24.947L49.651 26.0575C50.0333 25.8307 50.4459 25.6596 50.8766 25.5494L51.1758 23.68H52.9117L53.211 25.5495ZM34.303 22.8865H43.1034C43.2858 22.8865 43.4606 22.9589 43.5896 23.0879C43.7185 23.2168 43.7909 23.3917 43.7909 23.574C43.7909 23.7564 43.7185 23.9312 43.5896 24.0602C43.4606 24.1891 43.2858 24.2615 43.1034 24.2615H34.303C34.1207 24.2615 33.9458 24.1891 33.8169 24.0602C33.6879 23.9312 33.6155 23.7564 33.6155 23.574C33.6155 23.3917 33.6879 23.2168 33.8169 23.0879C33.9458 22.9589 34.1207 22.8865 34.303 22.8865ZM47.9738 37.0567L45.0884 34.1712L46.3179 32.473L44.2477 32.1416V28.061L46.3179 27.7295L45.0883 26.0313L47.9738 23.1459L49.672 24.3754L49.9045 22.9224H47.4333C47.251 22.9224 47.0761 22.8499 46.9472 22.721C46.8182 22.5921 46.7458 22.4172 46.7458 22.2349V18.8789H30.0761V45.7252H50.7893V37.8974H50.0034L49.6721 35.8272L47.9738 37.0567ZM42.8259 33.7252C43.0083 33.7252 43.1831 33.7976 43.3121 33.9266C43.441 34.0555 43.5134 34.2304 43.5134 34.4127C43.5134 34.595 43.441 34.7699 43.3121 34.8988C43.1831 35.0278 43.0083 35.1002 42.8259 35.1002H34.303C34.1207 35.1002 33.9458 35.0278 33.8169 34.8988C33.6879 34.7699 33.6155 34.595 33.6155 34.4127C33.6155 34.2304 33.6879 34.0555 33.8169 33.9266C33.9458 33.7976 34.1207 33.7252 34.303 33.7252H42.8259ZM42.8259 30.1122C43.0083 30.1122 43.1831 30.1847 43.3121 30.3136C43.441 30.4425 43.5134 30.6174 43.5134 30.7997C43.5134 30.9821 43.441 31.1569 43.3121 31.2859C43.1831 31.4148 43.0083 31.4872 42.8259 31.4872H34.303C34.1207 31.4872 33.9458 31.4148 33.8169 31.2859C33.6879 31.1569 33.6155 30.9821 33.6155 30.7997C33.6155 30.6174 33.6879 30.4425 33.8169 30.3136C33.9458 30.1847 34.1207 30.1122 34.303 30.1122H42.8259ZM34.303 26.4994H43.1034C43.2858 26.4994 43.4606 26.5718 43.5896 26.7008C43.7185 26.8297 43.7909 27.0046 43.7909 27.1869C43.7909 27.3693 43.7185 27.5441 43.5896 27.673C43.4606 27.802 43.2858 27.8744 43.1034 27.8744H34.303C34.1207 27.8744 33.9458 27.802 33.8169 27.673C33.6879 27.5441 33.6155 27.3693 33.6155 27.1869C33.6155 27.0046 33.6879 26.8297 33.8169 26.7008C33.9458 26.5718 34.1207 26.4994 34.303 26.4994ZM34.303 37.338H46.5624C46.7447 37.338 46.9196 37.4105 47.0485 37.5394C47.1775 37.6683 47.2499 37.8432 47.2499 38.0255C47.2499 38.2079 47.1775 38.3827 47.0485 38.5117C46.9196 38.6406 46.7447 38.713 46.5624 38.713H34.303C34.1207 38.713 33.9458 38.6406 33.8169 38.5117C33.6879 38.3827 33.6155 38.2079 33.6155 38.0255C33.6155 37.8432 33.6879 37.6683 33.8169 37.5394C33.9458 37.4105 34.1207 37.338 34.303 37.338ZM33.6155 41.6384C33.6155 41.4561 33.6879 41.2812 33.8169 41.1523C33.9458 41.0234 34.1207 40.9509 34.303 40.9509H46.5624C46.7447 40.9509 46.9196 41.0234 47.0485 41.1523C47.1775 41.2812 47.2499 41.4561 47.2499 41.6384C47.2499 41.8208 47.1775 41.9956 47.0485 42.1246C46.9196 42.2535 46.7447 42.3259 46.5624 42.3259H34.303C34.1207 42.3259 33.9458 42.2535 33.8169 42.1246C33.6879 41.9956 33.6155 41.8208 33.6155 41.6384ZM34.7654 57.7257H30.5453C29.2449 57.7257 28.181 58.5758 28.181 59.6148V61.5039H52.6845V59.6148C52.6845 58.5758 51.6206 57.7257 50.3202 57.7257H46.1001V53.3209H55.6926C57.2175 53.3209 58.4651 52.0732 58.4651 50.5483V34.7055L56.1467 37.0239V48.6506H24.7188V31.4053C24.7191 31.3034 24.7597 31.2058 24.8318 31.1338C24.9038 31.0617 25.0014 31.0211 25.1033 31.0208H28.701V28.7024H25.1729C23.648 28.7024 22.4004 29.9501 22.4004 31.4749V50.5483C22.4004 52.0732 23.648 53.3209 25.1729 53.3209H34.7654V57.7257ZM48.1208 19.5664L50.1017 21.5474H48.1208V19.5664ZM52.0438 27.5363C50.6272 27.5363 49.4789 28.6847 49.4789 30.1012C49.4789 31.5178 50.6272 32.6661 52.0438 32.6661C53.4603 32.6661 54.6086 31.5177 54.6086 30.1012C54.6086 28.6847 53.4603 27.5363 52.0438 27.5363Z" fill="#FF3E54"/>
</svg>
