<svg width="80" height="80" viewBox="0 0 80 80" fill="none" xmlns="http://www.w3.org/2000/svg">
<rect width="80" height="80" rx="5" fill="white"/>
<g clip-path="url(#clip0_161_262)">
<path d="M50.0833 23.5V26.25H55.5833V23.5C55.5833 22.7707 55.2936 22.0712 54.7779 21.5555C54.2622 21.0397 53.5627 20.75 52.8333 20.75C52.104 20.75 51.4045 21.0397 50.8888 21.5555C50.3731 22.0712 50.0833 22.7707 50.0833 23.5ZM45.5 40H56.5V45.5H45.5V40Z" fill="#333333"/>
<path d="M59.2494 35.416H42.7493C42.2631 35.416 41.7968 35.6092 41.453 35.953C41.1092 36.2968 40.916 36.7631 40.916 37.2493V59.2493C40.916 59.7356 41.1092 60.2019 41.453 60.5457C41.7968 60.8895 42.2631 61.0827 42.7493 61.0827H59.2494C59.7356 61.0827 60.2019 60.8895 60.5457 60.5457C60.8895 60.2019 61.0827 59.7356 61.0827 59.2493V37.2493C61.0827 36.7631 60.8895 36.2968 60.5457 35.953C60.2019 35.6092 59.7356 35.416 59.2494 35.416ZM46.416 58.3327H44.5827C44.3396 58.3327 44.1064 58.2361 43.9345 58.0642C43.7626 57.8923 43.666 57.6591 43.666 57.416C43.666 57.1729 43.7626 56.9397 43.9345 56.7678C44.1064 56.5959 44.3396 56.4993 44.5827 56.4993H46.416C46.6591 56.4993 46.8923 56.5959 47.0642 56.7678C47.2361 56.9397 47.3327 57.1729 47.3327 57.416C47.3327 57.6591 47.2361 57.8923 47.0642 58.0642C46.8923 58.2361 46.6591 58.3327 46.416 58.3327ZM46.416 54.666H44.5827C44.3396 54.666 44.1064 54.5694 43.9345 54.3975C43.7626 54.2256 43.666 53.9925 43.666 53.7493C43.666 53.5062 43.7626 53.2731 43.9345 53.1012C44.1064 52.9293 44.3396 52.8327 44.5827 52.8327H46.416C46.6591 52.8327 46.8923 52.9293 47.0642 53.1012C47.2361 53.2731 47.3327 53.5062 47.3327 53.7493C47.3327 53.9925 47.2361 54.2256 47.0642 54.3975C46.8923 54.5694 46.6591 54.666 46.416 54.666ZM46.416 50.9993H44.5827C44.3396 50.9993 44.1064 50.9028 43.9345 50.7309C43.7626 50.559 43.666 50.3258 43.666 50.0827C43.666 49.8396 43.7626 49.6064 43.9345 49.4345C44.1064 49.2626 44.3396 49.166 44.5827 49.166H46.416C46.6591 49.166 46.8923 49.2626 47.0642 49.4345C47.2361 49.6064 47.3327 49.8396 47.3327 50.0827C47.3327 50.3258 47.2361 50.559 47.0642 50.7309C46.8923 50.9028 46.6591 50.9993 46.416 50.9993ZM51.916 58.3327H50.0827C49.8396 58.3327 49.6064 58.2361 49.4345 58.0642C49.2626 57.8923 49.166 57.6591 49.166 57.416C49.166 57.1729 49.2626 56.9397 49.4345 56.7678C49.6064 56.5959 49.8396 56.4993 50.0827 56.4993H51.916C52.1591 56.4993 52.3923 56.5959 52.5642 56.7678C52.7361 56.9397 52.8327 57.1729 52.8327 57.416C52.8327 57.6591 52.7361 57.8923 52.5642 58.0642C52.3923 58.2361 52.1591 58.3327 51.916 58.3327ZM51.916 54.666H50.0827C49.8396 54.666 49.6064 54.5694 49.4345 54.3975C49.2626 54.2256 49.166 53.9925 49.166 53.7493C49.166 53.5062 49.2626 53.2731 49.4345 53.1012C49.6064 52.9293 49.8396 52.8327 50.0827 52.8327H51.916C52.1591 52.8327 52.3923 52.9293 52.5642 53.1012C52.7361 53.2731 52.8327 53.5062 52.8327 53.7493C52.8327 53.9925 52.7361 54.2256 52.5642 54.3975C52.3923 54.5694 52.1591 54.666 51.916 54.666ZM51.916 50.9993H50.0827C49.8396 50.9993 49.6064 50.9028 49.4345 50.7309C49.2626 50.559 49.166 50.3258 49.166 50.0827C49.166 49.8396 49.2626 49.6064 49.4345 49.4345C49.6064 49.2626 49.8396 49.166 50.0827 49.166H51.916C52.1591 49.166 52.3923 49.2626 52.5642 49.4345C52.7361 49.6064 52.8327 49.8396 52.8327 50.0827C52.8327 50.3258 52.7361 50.559 52.5642 50.7309C52.3923 50.9028 52.1591 50.9993 51.916 50.9993ZM57.416 58.3327H55.5827C55.3396 58.3327 55.1064 58.2361 54.9345 58.0642C54.7626 57.8923 54.666 57.6591 54.666 57.416C54.666 57.1729 54.7626 56.9397 54.9345 56.7678C55.1064 56.5959 55.3396 56.4993 55.5827 56.4993H57.416C57.6591 56.4993 57.8923 56.5959 58.0642 56.7678C58.2361 56.9397 58.3327 57.1729 58.3327 57.416C58.3327 57.6591 58.2361 57.8923 58.0642 58.0642C57.8923 58.2361 57.6591 58.3327 57.416 58.3327ZM57.416 54.666H55.5827C55.3396 54.666 55.1064 54.5694 54.9345 54.3975C54.7626 54.2256 54.666 53.9925 54.666 53.7493C54.666 53.5062 54.7626 53.2731 54.9345 53.1012C55.1064 52.9293 55.3396 52.8327 55.5827 52.8327H57.416C57.6591 52.8327 57.8923 52.9293 58.0642 53.1012C58.2361 53.2731 58.3327 53.5062 58.3327 53.7493C58.3327 53.9925 58.2361 54.2256 58.0642 54.3975C57.8923 54.5694 57.6591 54.666 57.416 54.666ZM57.416 50.9993H55.5827C55.3396 50.9993 55.1064 50.9028 54.9345 50.7309C54.7626 50.559 54.666 50.3258 54.666 50.0827C54.666 49.8396 54.7626 49.6064 54.9345 49.4345C55.1064 49.2626 55.3396 49.166 55.5827 49.166H57.416C57.6591 49.166 57.8923 49.2626 58.0642 49.4345C58.2361 49.6064 58.3327 49.8396 58.3327 50.0827C58.3327 50.3258 58.2361 50.559 58.0642 50.7309C57.8923 50.9028 57.6591 50.9993 57.416 50.9993ZM58.3327 46.416C58.3327 46.6591 58.2361 46.8923 58.0642 47.0642C57.8923 47.2361 57.6591 47.3327 57.416 47.3327H44.5827C44.3396 47.3327 44.1064 47.2361 43.9345 47.0642C43.7626 46.8923 43.666 46.6591 43.666 46.416V39.0827C43.666 38.8396 43.7626 38.6064 43.9345 38.4345C44.1064 38.2626 44.3396 38.166 44.5827 38.166H57.416C57.6591 38.166 57.8923 38.2626 58.0642 38.4345C58.2361 38.6064 58.3327 38.8396 58.3327 39.0827V46.416Z" fill="#333333"/>
<path d="M48.2493 33.5827V22.5827C48.2493 21.6102 48.6357 20.6776 49.3233 19.99C50.0109 19.3023 50.9436 18.916 51.916 18.916H22.5827C21.6102 18.916 20.6776 19.3023 19.99 19.99C19.3023 20.6776 18.916 21.6102 18.916 22.5827V57.416H39.0827V37.2493C39.0827 36.2769 39.469 35.3443 40.1566 34.6566C40.8443 33.969 41.7769 33.5827 42.7493 33.5827H48.2493ZM23.4993 25.3327H41.8327C42.0758 25.3327 42.309 25.4293 42.4809 25.6012C42.6528 25.7731 42.7493 26.0062 42.7493 26.2493C42.7493 26.4925 42.6528 26.7256 42.4809 26.8975C42.309 27.0694 42.0758 27.166 41.8327 27.166H23.4993C23.2562 27.166 23.0231 27.0694 22.8512 26.8975C22.6793 26.7256 22.5827 26.4925 22.5827 26.2493C22.5827 26.0062 22.6793 25.7731 22.8512 25.6012C23.0231 25.4293 23.2562 25.3327 23.4993 25.3327ZM36.3327 50.0827H23.4993C23.2562 50.0827 23.0231 49.9861 22.8512 49.8142C22.6793 49.6423 22.5827 49.4091 22.5827 49.166C22.5827 48.9229 22.6793 48.6897 22.8512 48.5178C23.0231 48.3459 23.2562 48.2493 23.4993 48.2493H36.3327C36.5758 48.2493 36.809 48.3459 36.9809 48.5178C37.1528 48.6897 37.2493 48.9229 37.2493 49.166C37.2493 49.4091 37.1528 49.6423 36.9809 49.8142C36.809 49.9861 36.5758 50.0827 36.3327 50.0827ZM36.3327 45.4993H23.4993C23.2562 45.4993 23.0231 45.4028 22.8512 45.2309C22.6793 45.059 22.5827 44.8258 22.5827 44.5827C22.5827 44.3396 22.6793 44.1064 22.8512 43.9345C23.0231 43.7626 23.2562 43.666 23.4993 43.666H36.3327C36.5758 43.666 36.809 43.7626 36.9809 43.9345C37.1528 44.1064 37.2493 44.3396 37.2493 44.5827C37.2493 44.8258 37.1528 45.059 36.9809 45.2309C36.809 45.4028 36.5758 45.4993 36.3327 45.4993ZM36.3327 40.916H23.4993C23.2562 40.916 23.0231 40.8194 22.8512 40.6475C22.6793 40.4756 22.5827 40.2425 22.5827 39.9993C22.5827 39.7562 22.6793 39.5231 22.8512 39.3512C23.0231 39.1793 23.2562 39.0827 23.4993 39.0827H36.3327C36.5758 39.0827 36.809 39.1793 36.9809 39.3512C37.1528 39.5231 37.2493 39.7562 37.2493 39.9993C37.2493 40.2425 37.1528 40.4756 36.9809 40.6475C36.809 40.8194 36.5758 40.916 36.3327 40.916ZM36.3327 36.3327H23.4993C23.2562 36.3327 23.0231 36.2361 22.8512 36.0642C22.6793 35.8923 22.5827 35.6591 22.5827 35.416C22.5827 35.1729 22.6793 34.9397 22.8512 34.7678C23.0231 34.5959 23.2562 34.4993 23.4993 34.4993H36.3327C36.5758 34.4993 36.809 34.5959 36.9809 34.7678C37.1528 34.9397 37.2493 35.1729 37.2493 35.416C37.2493 35.6591 37.1528 35.8923 36.9809 36.0642C36.809 36.2361 36.5758 36.3327 36.3327 36.3327ZM41.8327 31.7493H23.4993C23.2562 31.7493 23.0231 31.6528 22.8512 31.4809C22.6793 31.309 22.5827 31.0758 22.5827 30.8327C22.5827 30.5896 22.6793 30.3564 22.8512 30.1845C23.0231 30.0126 23.2562 29.916 23.4993 29.916H41.8327C42.0758 29.916 42.309 30.0126 42.4809 30.1845C42.6528 30.3564 42.7493 30.5896 42.7493 30.8327C42.7493 31.0758 42.6528 31.309 42.4809 31.4809C42.309 31.6528 42.0758 31.7493 41.8327 31.7493Z" fill="#FF3E54"/>
</g>
<defs>
<clipPath id="clip0_161_262">
<rect width="44" height="44" fill="white" transform="translate(18 18)"/>
</clipPath>
</defs>
</svg>
