<svg width="80" height="80" viewBox="0 0 80 80" fill="none" xmlns="http://www.w3.org/2000/svg">
<rect width="80" height="80" rx="5" fill="white"/>
<path d="M37.8452 50.822C38.6014 51.3127 39.4615 51.6202 40.3574 51.72C41.2532 51.8198 42.1599 51.7093 43.0055 51.3972C43.8511 51.085 44.6123 50.5799 45.2283 49.9219C45.8444 49.264 46.2985 48.4714 46.5545 47.6071C46.8104 46.7428 46.8612 45.8308 46.7028 44.9434C46.5444 44.0561 46.1811 43.2179 45.6418 42.4957C45.1026 41.7734 44.4023 41.1869 43.5965 40.7828C42.7908 40.3787 41.9019 40.1682 41.0005 40.168C39.7607 40.1873 38.5594 40.6021 37.5716 41.3517C36.5839 42.1014 35.8613 43.1469 35.5092 44.3359C35.1571 45.5249 35.1938 46.7952 35.614 47.9619C36.0341 49.1286 36.8159 50.1306 37.8452 50.822ZM48.822 47.0435C49.0204 53.1436 57.8667 53.1428 58.0709 47.0435C57.8531 40.9248 49.0405 40.9241 48.822 47.0435Z" fill="#333333"/>
<path d="M57.6262 51.416C56.5886 52.4015 55.2362 52.9887 53.8078 53.074C52.3793 53.1594 50.9667 52.7374 49.8191 51.8825C49.3203 51.4189 49.2211 51.3492 48.6864 51.8322C50.5623 53.6125 52.4246 56.167 52.0702 58.8723H58.5448C58.949 58.8713 59.3471 58.7738 59.7061 58.5881C60.0651 58.4023 60.3747 58.1336 60.609 57.8043C62.1191 55.5682 59.4216 52.5588 57.6262 51.416ZM47.6104 52.7924C47.0214 52.2756 46.3713 51.8326 45.6748 51.4735C45.4392 51.6711 45.1928 51.8554 44.9367 52.0255C43.7641 52.7808 42.3988 53.1825 41.004 53.1825C39.6092 53.1825 38.244 52.7808 37.0714 52.0255C36.8139 51.8537 36.5649 51.6695 36.3253 51.4735C35.6288 51.8326 34.9788 52.2756 34.3897 52.7924C33.0407 53.9519 32.0279 55.4525 31.4572 57.1373C31.3122 57.5955 31.277 58.0814 31.3546 58.5558C31.4321 59.0301 31.6202 59.4795 31.9035 59.8677C32.1869 60.2559 32.5577 60.572 32.9858 60.7904C33.414 61.0088 33.8875 61.1234 34.3682 61.1249H47.632C48.3034 61.1196 48.9551 60.8975 49.49 60.4917C50.0249 60.0859 50.4144 59.5182 50.6004 58.873C51.059 56.591 49.1744 54.2393 47.6104 52.7924ZM33.3145 51.8243C32.7905 51.3499 32.6633 51.4282 32.1817 51.8818C31.0341 52.737 29.6212 53.1593 28.1925 53.074C26.7637 52.9888 25.4111 52.4016 24.3732 51.416C22.5857 52.5545 19.8861 55.5761 21.3904 57.8043C21.6249 58.1338 21.9346 58.4026 22.2939 58.5884C22.6532 58.7742 23.0516 58.8715 23.4561 58.8723H29.9299C29.5683 56.1806 31.4371 53.6147 33.3145 51.8243Z" fill="#333333"/>
<path d="M33.1766 47.0424C32.9588 40.9237 24.1462 40.923 23.9277 47.0424C24.1304 53.1396 32.9768 53.1446 33.1766 47.0424Z" fill="#333333"/>
<path d="M27.9811 41.3357C28.0485 41.4237 28.1353 41.4951 28.2348 41.5442C28.3343 41.5933 28.4437 41.6189 28.5546 41.6189C28.6656 41.6189 28.775 41.5933 28.8745 41.5442C28.974 41.4951 29.0608 41.4237 29.1282 41.3357L31.2794 38.4678C31.3864 38.3153 31.4299 38.1272 31.4007 37.9432C31.3714 37.7592 31.2717 37.5938 31.1226 37.482C30.9736 37.3702 30.7869 37.3208 30.6021 37.3442C30.4172 37.3676 30.2488 37.4621 30.1323 37.6075L29.272 38.7546V30.696C29.2716 30.6018 29.2898 30.5084 29.3257 30.4212C29.3616 30.3341 29.4143 30.2549 29.481 30.1882C29.5476 30.1215 29.6267 30.0687 29.7138 30.0327C29.8009 29.9968 29.8943 29.9784 29.9886 29.9787H32.4194C33.4112 40.6643 48.5956 40.6564 49.5831 29.9787H52.0139C52.1082 29.9783 52.2017 29.9966 52.2889 30.0325C52.3761 30.0684 52.4553 30.1213 52.522 30.1879C52.5887 30.2546 52.6415 30.3338 52.6774 30.421C52.7133 30.5082 52.7316 30.6017 52.7312 30.696V38.7546L51.8702 37.6075C51.7537 37.4621 51.5853 37.3676 51.4004 37.3442C51.2156 37.3208 51.0289 37.3702 50.8799 37.482C50.7308 37.5938 50.6311 37.7592 50.6018 37.9432C50.5726 38.1272 50.616 38.3153 50.7231 38.4678L52.8736 41.3357C52.941 41.4237 53.0278 41.4951 53.1273 41.5442C53.2267 41.5933 53.3362 41.6189 53.4471 41.6189C53.558 41.6189 53.6675 41.5933 53.767 41.5442C53.8664 41.4951 53.9532 41.4237 54.0207 41.3357L56.1719 38.4678C56.2789 38.3153 56.3224 38.1272 56.2931 37.9432C56.2639 37.7592 56.1641 37.5938 56.0151 37.482C55.8661 37.3702 55.6794 37.3208 55.4945 37.3442C55.3097 37.3676 55.1412 37.4621 55.0248 37.6075L54.1644 38.7546V30.696C54.164 30.1256 53.9373 29.5786 53.5339 29.1753C53.1306 28.7719 52.5836 28.5452 52.0132 28.5448H49.563C48.2369 18.3198 33.7685 18.317 32.4416 28.5448H29.9893C29.419 28.5454 28.8722 28.7722 28.469 29.1755C28.0658 29.5789 27.8392 30.1257 27.8388 30.696V38.7546L26.9784 37.6075C26.862 37.4621 26.6935 37.3676 26.5087 37.3442C26.3238 37.3208 26.1371 37.3702 25.9881 37.482C25.8391 37.5938 25.7393 37.7592 25.7101 37.9432C25.6808 38.1272 25.7243 38.3153 25.8313 38.4678L27.9811 41.3357ZM41.0012 30.1512C40.3652 30.1448 39.7526 29.9101 39.2752 29.4897C38.7978 29.0694 38.4873 28.4915 38.4005 27.8613C38.3136 27.2312 38.4561 26.5908 38.8019 26.057C39.1478 25.5232 39.674 25.1314 40.2846 24.9532V23.6192C40.2905 23.433 40.3687 23.2564 40.5025 23.1267C40.6363 22.9971 40.8153 22.9246 41.0016 22.9246C41.1879 22.9246 41.3669 22.9971 41.5007 23.1267C41.6345 23.2564 41.7127 23.433 41.7186 23.6192V24.9532C42.2749 25.1075 42.7654 25.4398 43.115 25.8993C43.4646 26.3588 43.6539 26.9202 43.6541 27.4976C43.6482 27.6838 43.5701 27.8604 43.4363 27.99C43.3025 28.1197 43.1235 28.1922 42.9372 28.1922C42.7509 28.1922 42.5719 28.1197 42.4381 27.99C42.3043 27.8604 42.2261 27.6838 42.2202 27.4976C42.2201 27.2565 42.1485 27.0209 42.0145 26.8205C41.8804 26.6201 41.69 26.464 41.4672 26.3719C41.2445 26.2797 40.9994 26.2557 40.763 26.3028C40.5266 26.3499 40.3094 26.4661 40.139 26.6366C39.9686 26.8071 39.8526 27.0243 39.8056 27.2607C39.7586 27.4972 39.7828 27.7422 39.8751 27.9649C39.9674 28.1876 40.1236 28.378 40.3241 28.5119C40.5245 28.6458 40.7602 28.7173 41.0012 28.7173C41.6382 28.7236 42.2517 28.9587 42.7298 29.3796C43.208 29.8005 43.5188 30.3793 43.6058 31.0104C43.6928 31.6414 43.55 32.2827 43.2036 32.8173C42.8571 33.3519 42.3301 33.7441 41.7186 33.9225V35.2486C41.7127 35.4348 41.6345 35.6114 41.5007 35.741C41.3669 35.8707 41.1879 35.9432 41.0016 35.9432C40.8153 35.9432 40.6363 35.8707 40.5025 35.741C40.3687 35.6114 40.2905 35.4348 40.2846 35.2486V33.9225C39.7279 33.7658 39.2376 33.4317 38.8881 32.9709C38.5386 32.5101 38.3491 31.9478 38.3483 31.3695C38.3542 31.1832 38.4324 31.0066 38.5662 30.877C38.7 30.7473 38.879 30.6749 39.0653 30.6749C39.2516 30.6749 39.4306 30.7473 39.5644 30.877C39.6982 31.0066 39.7763 31.1832 39.7822 31.3695C39.7821 31.6106 39.8535 31.8463 39.9873 32.0469C40.1212 32.2475 40.3115 32.4038 40.5343 32.4962C40.757 32.5886 41.0021 32.6128 41.2386 32.5659C41.4751 32.5189 41.6924 32.4029 41.8629 32.2324C42.0335 32.062 42.1497 31.8447 42.1968 31.6083C42.2439 31.3718 42.2198 31.1266 42.1275 30.9039C42.0353 30.6811 41.879 30.4907 41.6786 30.3567C41.4781 30.2227 41.2424 30.1512 41.0012 30.1512Z" fill="#FF3E54"/>
</svg>
