<svg width="80" height="80" viewBox="0 0 80 80" fill="none" xmlns="http://www.w3.org/2000/svg">
<rect width="80" height="80" rx="5" fill="white"/>
<g clip-path="url(#clip0_161_301)">
<path d="M38.7141 31.9396C38.6378 31.8656 38.5451 31.8108 38.4435 31.7796C38.3419 31.7484 38.2344 31.7418 38.1297 31.7602C38.0249 31.7772 37.9254 31.8183 37.8391 31.8804C37.7529 31.9424 37.6822 32.0236 37.6327 32.1177C36.6997 33.8887 37.8939 36.4723 38.7478 37.938H41.2936L40.7594 36.8703C40.7191 36.7895 40.695 36.7016 40.6887 36.6115C40.6823 36.5214 40.6937 36.4309 40.7223 36.3452C40.7509 36.2596 40.7961 36.1804 40.8553 36.1122C40.9146 36.0439 40.9866 35.9881 41.0674 35.9477C41.1482 35.9074 41.2362 35.8833 41.3263 35.8769C41.4164 35.8706 41.5068 35.882 41.5925 35.9106C41.6782 35.9392 41.7574 35.9844 41.8256 36.0436C41.8938 36.1028 41.9497 36.1749 41.99 36.2557L42.7497 37.7751L43.5094 36.2557C43.5909 36.0925 43.7339 35.9684 43.9069 35.9106C44.08 35.8529 44.2689 35.8662 44.432 35.9477C44.5952 36.0292 44.7194 36.1722 44.7771 36.3452C44.8349 36.5183 44.8215 36.7071 44.74 36.8703L44.2059 37.938H46.7517C47.6049 36.4723 48.8004 33.8887 47.8668 32.1177C47.784 31.961 47.6439 31.8423 47.4757 31.7863C47.3076 31.7304 47.1243 31.7414 46.9641 31.8172C44.2038 33.1269 43.231 32.4703 43.2241 32.4703C43.1409 32.391 43.0391 32.3338 42.9281 32.304C42.8171 32.2742 42.7004 32.2727 42.5886 32.2996C42.4768 32.3266 42.3736 32.3811 42.2884 32.4583C42.2032 32.5354 42.1386 32.6327 42.1007 32.7412L41.9756 33.0987L41.5232 32.4621C41.4336 32.3361 41.304 32.244 41.1556 32.2008C41.0071 32.1575 40.8484 32.1655 40.7051 32.2235C40.3789 32.3625 40.021 32.4095 39.67 32.3594C39.319 32.3094 38.9884 32.1642 38.7141 31.9396ZM42.0622 45.4318V44.1943C41.6085 44.318 41.3747 44.5655 41.3747 44.813C41.3747 45.0605 41.6085 45.308 42.0622 45.4318Z" fill="#FF3E54"/>
<path d="M41.3479 39.3125H37.8417C36.548 40.6741 35.7158 42.4083 35.4629 44.2694C35.0848 46.5587 34.8854 49.1163 36.2811 50.7319C37.2367 51.8388 38.7973 52.375 41.0454 52.375H44.2079C46.6004 52.4094 48.2298 51.8731 49.2198 50.7319C50.6154 49.1163 50.4161 46.5587 50.0379 44.2694C49.7851 42.4083 48.9529 40.6741 47.6592 39.3125H44.1529L44.7304 40.3575C44.8156 40.5184 44.8346 40.7063 44.7832 40.881C44.7318 41.0557 44.6142 41.2033 44.4554 41.2925C44.3537 41.3463 44.2405 41.3746 44.1254 41.375C44.0019 41.3747 43.8807 41.3414 43.7743 41.2785C43.6679 41.2157 43.5803 41.1256 43.5204 41.0175L42.7504 39.6081L41.9804 41.0175C41.9206 41.1256 41.8329 41.2157 41.7265 41.2785C41.6202 41.3414 41.499 41.3747 41.3754 41.375C41.2604 41.3746 41.1471 41.3463 41.0454 41.2925C40.8867 41.2033 40.769 41.0557 40.7177 40.881C40.6663 40.7063 40.6852 40.5184 40.7704 40.3575L41.3479 39.3125ZM42.0629 42.7981V42.75C42.0629 42.5677 42.1354 42.3928 42.2643 42.2639C42.3932 42.1349 42.5681 42.0625 42.7504 42.0625C42.9328 42.0625 43.1076 42.1349 43.2366 42.2639C43.3655 42.3928 43.4379 42.5677 43.4379 42.75V42.7913C45.4111 43.0181 45.5004 44.3381 45.5004 44.5031C45.5025 44.5935 45.4867 44.6834 45.454 44.7676C45.4212 44.8518 45.3721 44.9287 45.3094 44.9939C45.2468 45.0591 45.1719 45.1112 45.0891 45.1474C45.0062 45.1835 44.9171 45.2029 44.8267 45.2044C44.7364 45.2085 44.6462 45.1942 44.5616 45.1626C44.4769 45.131 44.3995 45.0826 44.334 45.0203C44.2685 44.958 44.2163 44.8831 44.1805 44.8002C44.1446 44.7172 44.1259 44.6279 44.1254 44.5375C44.1117 44.455 43.9536 44.2556 43.4379 44.1663V45.5481C43.9685 45.5737 44.4714 45.7927 44.8515 46.1639C45.2315 46.5351 45.4624 47.0326 45.5004 47.5625C45.4624 48.0924 45.2315 48.5899 44.8515 48.9611C44.4714 49.3323 43.9685 49.5513 43.4379 49.5769V49.625C43.4379 49.8073 43.3655 49.9822 43.2366 50.1111C43.1076 50.2401 42.9328 50.3125 42.7504 50.3125C42.5681 50.3125 42.3932 50.2401 42.2643 50.1111C42.1354 49.9822 42.0629 49.8073 42.0629 49.625V49.5906C40.0898 49.3569 40.0004 48.0369 40.0004 47.8719C39.9983 47.7815 40.0141 47.6916 40.0469 47.6074C40.0797 47.5232 40.1288 47.4463 40.1914 47.3811C40.254 47.3159 40.3289 47.2638 40.4118 47.2276C40.4946 47.1915 40.5838 47.1721 40.6742 47.1706C40.8553 47.171 41.0294 47.2413 41.16 47.3668C41.2906 47.4923 41.3678 47.6634 41.3754 47.8444C41.3892 47.92 41.5404 48.1125 42.0629 48.2019V46.8269C41.5323 46.8013 41.0294 46.5823 40.6494 46.2111C40.2694 45.8399 40.0385 45.3424 40.0004 44.8125C40.0385 44.2826 40.2694 43.7851 40.6494 43.4139C41.0294 43.0427 41.5323 42.8237 42.0629 42.7981Z" fill="#FF3E54"/>
<path d="M44.125 47.5625C44.125 47.315 43.8913 47.0675 43.4375 46.9437V48.1813C43.8913 48.0575 44.125 47.81 44.125 47.5625ZM29.6875 40C29.6908 37.266 30.7783 34.6448 32.7116 32.7116C34.6448 30.7783 37.266 29.6908 40 29.6875C40.1822 29.687 40.3567 29.6143 40.4855 29.4855C40.6143 29.3567 40.687 29.1822 40.6875 29V21.4375C40.687 21.2553 40.6143 21.0808 40.4855 20.952C40.3567 20.8232 40.1822 20.7505 40 20.75C35.4392 20.7456 31.0265 22.3692 27.5562 25.3287L30.4575 28.23C30.5212 28.2936 30.5718 28.3692 30.6063 28.4523C30.6408 28.5355 30.6586 28.6246 30.6586 28.7147C30.6586 28.8047 30.6408 28.8939 30.6063 28.9771C30.5718 29.0602 30.5212 29.1358 30.4575 29.1994C30.3948 29.2646 30.3195 29.3165 30.2362 29.352C30.1529 29.3875 30.0633 29.4057 29.9728 29.4057C29.8823 29.4057 29.7927 29.3875 29.7094 29.352C29.6261 29.3165 29.5509 29.2646 29.4881 29.1994L23.9881 23.6994C23.857 23.5727 23.6823 23.5014 23.5 23.5H18.6875C18.5052 23.5 18.3303 23.5724 18.2014 23.7014C18.0724 23.8303 18 24.0052 18 24.1875C18 24.3698 18.0724 24.5447 18.2014 24.6736C18.3303 24.8026 18.5052 24.875 18.6875 24.875H23.2181L25.5969 27.2606C22.4707 30.7672 20.7453 35.3022 20.75 40C20.7505 40.1822 20.8232 40.3567 20.952 40.4855C21.0808 40.6143 21.2553 40.687 21.4375 40.6875H29C29.1822 40.687 29.3567 40.6143 29.4855 40.4855C29.6143 40.3567 29.687 40.1822 29.6875 40ZM18.6875 22.125H23.3515C23.5338 22.125 23.7087 22.0526 23.8376 21.9236C23.9666 21.7947 24.039 21.6198 24.039 21.4375C24.039 21.2552 23.9666 21.0803 23.8376 20.9514C23.7087 20.8224 23.5338 20.75 23.3515 20.75H18.6875C18.5052 20.75 18.3303 20.8224 18.2014 20.9514C18.0724 21.0803 18 21.2552 18 21.4375C18 21.6198 18.0724 21.7947 18.2014 21.9236C18.3303 22.0526 18.5052 22.125 18.6875 22.125ZM18.6875 19.375H23.3515C23.5338 19.375 23.7087 19.3026 23.8376 19.1736C23.9666 19.0447 24.039 18.8698 24.039 18.6875C24.039 18.5052 23.9666 18.3303 23.8376 18.2014C23.7087 18.0724 23.5338 18 23.3515 18H18.6875C18.5052 18 18.3303 18.0724 18.2014 18.2014C18.0724 18.3303 18 18.5052 18 18.6875C18 18.8698 18.0724 19.0447 18.2014 19.1736C18.3303 19.3026 18.5052 19.375 18.6875 19.375ZM29.6875 42.75C29.6875 42.5677 29.6151 42.3928 29.4861 42.2639C29.3572 42.1349 29.1823 42.0625 29 42.0625H24.1875C24.0052 42.0625 23.8303 42.1349 23.7014 42.2639C23.5724 42.3928 23.5 42.5677 23.5 42.75C23.5056 47.7359 25.4419 52.5259 28.9028 56.1149C32.3637 59.704 37.0801 61.8132 42.0625 62V55.7781C38.725 55.6011 35.5822 54.1519 33.2804 51.7286C30.9786 49.3053 29.6928 46.0922 29.6875 42.75ZM42.75 29.6875C46.0922 29.6928 49.3053 30.9786 51.7286 33.2804C54.1519 35.5822 55.6011 38.725 55.7781 42.0625H62C61.8132 37.0801 59.704 32.3637 56.1149 28.9028C52.5259 25.4419 47.7359 23.5056 42.75 23.5C42.5677 23.5 42.3928 23.5724 42.2639 23.7014C42.1349 23.8303 42.0625 24.0052 42.0625 24.1875V29C42.0625 29.1823 42.1349 29.3572 42.2639 29.4861C42.3928 29.6151 42.5677 29.6875 42.75 29.6875ZM43.4375 55.7781V62C48.3023 61.8175 52.9185 59.8032 56.3609 56.3609C59.8032 52.9185 61.8175 48.3023 62 43.4375H55.7781C55.6057 46.6545 54.2501 49.6941 51.9721 51.9721C49.6941 54.2501 46.6545 55.6057 43.4375 55.7781Z" fill="black"/>
</g>
<defs>
<clipPath id="clip0_161_301">
<rect width="44" height="44" fill="white" transform="translate(18 18)"/>
</clipPath>
</defs>
</svg>
