<svg width="80" height="80" viewBox="0 0 80 80" fill="none" xmlns="http://www.w3.org/2000/svg">
<rect width="80" height="80" rx="5" fill="white"/>
<path d="M32.6677 46.1265C32.0346 46.2115 31.4246 46.4214 30.8732 46.744L31.6975 48.8002H33.6379L34.4629 46.7381C33.9117 46.4155 33.3012 46.2075 32.6677 46.1265ZM35.601 42.7788V42.3652C33.7189 43.123 31.6165 43.123 29.7344 42.3652V42.781C29.8942 43.0956 30.5872 44.1744 32.6677 44.6364C34.7394 44.1802 35.4346 43.1052 35.601 42.7788ZM31.8772 50.2669L31.0404 60.5336H34.295L33.4582 50.2669H31.8772ZM44.7714 47.9972C44.1419 47.1233 43.3158 46.4095 42.3598 45.9134C41.4039 45.4172 40.3447 45.1526 39.2677 45.1409C39.2596 46.4477 39.2046 49.2872 38.9054 52.2264C38.4999 56.2069 37.812 58.9474 36.8206 60.5336H39.2677V58.3336C39.2677 57.9446 39.4222 57.5715 39.6973 57.2965C39.9723 57.0214 40.3454 56.8669 40.7344 56.8669H44.0344L44.7714 47.9972Z" fill="black"/>
<path d="M40.7343 60.5342H43.7263L43.9096 58.3342H40.7343V60.5342ZM30.3671 45.3381C29.6783 44.9676 29.0864 44.44 28.6394 43.7981C28.2 43.9419 27.8158 44.218 27.5394 44.5886C27.6107 45.4796 28.0206 46.3094 28.6849 46.9074C29.0868 46.2365 29.6699 45.6925 30.3671 45.3381ZM37.7496 47.8754C37.4333 48.1944 37.0792 48.4734 36.6951 48.7063C36.5967 48.7618 36.4868 48.7939 36.374 48.8C36.2612 48.8061 36.1485 48.786 36.0447 48.7413C35.9409 48.6967 35.8488 48.6287 35.7757 48.5426C35.7025 48.4565 35.6502 48.3546 35.6229 48.245C35.6 48.1602 35.5723 48.0767 35.5401 47.995L34.8801 49.6472L35.6919 59.6058C36.9605 57.3912 37.5721 52.2967 37.7496 47.8754ZM30.4559 49.6472L29.7959 47.995C29.7636 48.0767 29.736 48.1602 29.713 48.245C29.6857 48.3546 29.6334 48.4565 29.5602 48.5426C29.4871 48.6287 29.395 48.6967 29.2912 48.7413C29.1875 48.786 29.0748 48.8061 28.9619 48.8C28.8491 48.7939 28.7392 48.7618 28.6409 48.7063C28.2551 48.4725 27.8997 48.192 27.5827 47.871C27.7601 52.6157 28.4055 57.7879 29.6316 59.7738L30.4559 49.6472ZM36.6503 46.9052C37.3144 46.3067 37.7242 45.4768 37.7958 44.5857C37.5196 44.2149 37.1353 43.9387 36.6958 43.7952C36.2488 44.437 35.6569 44.9646 34.9681 45.3352C35.6656 45.6895 36.2488 46.2338 36.6503 46.9052ZM24.3509 33.2931C24.4296 33.4627 24.5447 33.6129 24.688 33.7329C24.8314 33.853 24.9995 33.9399 25.1803 33.9876C25.4417 34.0647 25.6729 34.2208 25.842 34.4346C26.0111 34.6484 26.1099 34.9093 26.1248 35.1814C26.2114 36.8648 26.9362 38.4519 28.1518 39.6197C29.3673 40.7876 30.9821 41.4483 32.6676 41.4676C34.3529 41.4484 35.9675 40.7878 37.183 39.6203C38.3984 38.4528 39.1234 36.866 39.2104 35.1829C39.2245 34.9134 39.3212 34.6548 39.4874 34.4422C39.6537 34.2297 39.8814 34.0735 40.1395 33.9949C40.3244 33.9475 40.4964 33.8595 40.643 33.7372C40.7895 33.6149 40.9069 33.4614 40.9865 33.288C41.4137 32.3066 41.5794 31.2313 41.4676 30.1669C41.4688 30.0787 41.4496 29.9914 41.4114 29.9119C41.3732 29.8324 41.3172 29.7628 41.2476 29.7086C41.2036 29.6724 41.1517 29.6473 41.0961 29.6353C41.0405 29.6233 40.9828 29.6248 40.9279 29.6396C40.8355 29.6819 40.7622 29.7573 40.7225 29.8508C40.6903 30.03 40.5925 30.1907 40.4483 30.3018C40.3041 30.4129 40.1237 30.4664 39.9422 30.4518C39.7608 30.4373 39.5912 30.3558 39.4665 30.2231C39.3418 30.0905 39.2709 29.9162 39.2676 29.7342V29.4409C39.2676 26.366 35.6992 25.4384 35.5474 25.4002C35.4935 25.384 35.4368 25.379 35.3809 25.3857C35.325 25.3924 35.2711 25.4106 35.2225 25.4391C32.8876 27.0209 28.69 27.7432 26.4343 27.8415C26.3314 27.8517 26.2363 27.9006 26.1682 27.9784C26.1001 28.0561 26.0641 28.1569 26.0676 28.2602V29.7342C26.0673 29.9184 25.9977 30.0957 25.8727 30.2309C25.7476 30.3661 25.5763 30.4493 25.3928 30.464C25.2092 30.4787 25.0268 30.4237 24.8819 30.3101C24.737 30.1965 24.6401 30.0326 24.6105 29.8508C24.5702 29.757 24.4965 29.6814 24.4037 29.6389C24.3738 29.6306 24.343 29.6264 24.312 29.6264C24.2296 29.6285 24.15 29.6573 24.0854 29.7086C24.0158 29.7628 23.9598 29.8324 23.9216 29.9119C23.8834 29.9914 23.8642 30.0787 23.8654 30.1669C23.7543 31.2334 23.9216 32.3105 24.3509 33.2931Z" fill="black"/>
<path d="M23.8793 28.2118C24.1151 28.1535 24.3603 28.1435 24.6001 28.1825C24.6152 27.7149 24.805 27.2699 25.132 26.9354C25.4591 26.6009 25.8996 26.4012 26.3667 26.3755C28.3768 26.2883 32.3317 25.6253 34.4026 24.2203C34.6224 24.0757 34.8704 23.9794 35.1302 23.9379C35.39 23.8963 35.6556 23.9103 35.9096 23.979C37.4628 24.3677 39.962 25.6701 40.5868 28.2125C40.8717 28.144 41.1689 28.1461 41.4529 28.2184C41.4149 25.9032 40.4759 23.6941 38.8354 22.06C37.1949 20.4259 34.9821 19.4957 32.6668 19.4668C30.3524 19.4953 28.1401 20.4244 26.4995 22.0571C24.8588 23.6898 23.919 25.8975 23.8793 28.2118ZM53.5881 49.5335C53.1445 49.5554 52.7206 49.7237 52.3829 50.0122C52.0452 50.3007 51.8127 50.693 51.7217 51.1277C51.6853 51.2955 51.6861 51.4692 51.7242 51.6365C51.7622 51.8039 51.8364 51.9609 51.9417 52.0965C52.0506 52.2185 52.185 52.315 52.3355 52.3791C52.486 52.4431 52.6488 52.473 52.8122 52.4668C53.2558 52.4449 53.6796 52.2765 54.0173 51.9881C54.3551 51.6996 54.5876 51.3073 54.6785 50.8725C54.715 50.7048 54.7141 50.5311 54.6761 50.3637C54.6381 50.1964 54.5638 50.0394 54.4585 49.9038C54.3497 49.7817 54.2152 49.6852 54.0647 49.6212C53.9143 49.5572 53.7515 49.5272 53.5881 49.5335ZM26.4291 52.4514C26.1277 49.4374 26.0741 46.4799 26.0668 45.1393C24.3606 45.1192 22.7144 45.768 21.4808 46.9468C20.2471 48.1256 19.5242 49.7407 19.4668 51.446V60.5335H28.4135C27.4741 59.0067 26.8177 56.3344 26.4291 52.4514ZM60.5335 20.2001C60.5335 20.0056 60.4562 19.8191 60.3187 19.6816C60.1812 19.5441 59.9946 19.4668 59.8001 19.4668H46.6001C46.4056 19.4668 46.2191 19.5441 46.0816 19.6816C45.9441 19.8191 45.8668 20.0056 45.8668 20.2001V31.9335C45.8668 32.128 45.9441 32.3145 46.0816 32.452C46.2191 32.5895 46.4056 32.6668 46.6001 32.6668H48.9248C49.1189 32.6668 49.3051 32.7438 49.4425 32.8809L52.6868 36.1135C52.8232 36.2491 53.0078 36.3252 53.2001 36.3252C53.3925 36.3252 53.577 36.2491 53.7135 36.1135L56.9592 32.8758C57.0971 32.7409 57.2826 32.6659 57.4755 32.6668H59.8001C59.9946 32.6668 60.1812 32.5895 60.3187 32.452C60.4562 32.3145 60.5335 32.128 60.5335 31.9335V20.2001ZM58.3335 31.2001H48.0668C47.8723 31.2001 47.6858 31.1229 47.5483 30.9853C47.4107 30.8478 47.3335 30.6613 47.3335 30.4668V21.6668C47.3335 21.4723 47.4107 21.2858 47.5483 21.1483C47.6858 21.0107 47.8723 20.9335 48.0668 20.9335C48.2613 20.9335 48.4478 21.0107 48.5853 21.1483C48.7229 21.2858 48.8001 21.4723 48.8001 21.6668V29.7335H50.2668V26.8001C50.2668 26.6056 50.3441 26.4191 50.4816 26.2816C50.6191 26.1441 50.8056 26.0668 51.0001 26.0668C51.1946 26.0668 51.3812 26.1441 51.5187 26.2816C51.6562 26.4191 51.7335 26.6056 51.7335 26.8001V29.7335H53.2001V23.8668C53.2001 23.6723 53.2774 23.4858 53.4149 23.3483C53.5524 23.2107 53.739 23.1335 53.9335 23.1335C54.128 23.1335 54.3145 23.2107 54.452 23.3483C54.5895 23.4858 54.6668 23.6723 54.6668 23.8668V29.7335H56.1335V25.3335C56.1335 25.139 56.2107 24.9524 56.3483 24.8149C56.4858 24.6774 56.6723 24.6001 56.8668 24.6001C57.0613 24.6001 57.2478 24.6774 57.3853 24.8149C57.5229 24.9524 57.6001 25.139 57.6001 25.3335V29.7335H58.3335C58.528 29.7335 58.7145 29.8107 58.852 29.9483C58.9895 30.0858 59.0668 30.2723 59.0668 30.4668C59.0668 30.6613 58.9895 30.8478 58.852 30.9853C58.7145 31.1229 58.528 31.2001 58.3335 31.2001Z" fill="#FF3E54"/>
<path d="M46.5415 44.4004L45.1973 60.5337H59.1255L60.4704 44.4004H46.5415ZM53.9335 56.8671H51.0001C50.8056 56.8671 50.6191 56.7898 50.4816 56.6523C50.3441 56.5147 50.2668 56.3282 50.2668 56.1337C50.2668 55.9392 50.3441 55.7527 50.4816 55.6152C50.6191 55.4777 50.8056 55.4004 51.0001 55.4004H53.9335C54.128 55.4004 54.3145 55.4777 54.452 55.6152C54.5895 55.7527 54.6668 55.9392 54.6668 56.1337C54.6668 56.3282 54.5895 56.5147 54.452 56.6523C54.3145 56.7898 54.128 56.8671 53.9335 56.8671ZM56.1217 51.128C55.9734 51.9033 55.5642 52.6044 54.9621 53.1149C54.36 53.6253 53.6013 53.9143 52.8122 53.9337C52.4343 53.9419 52.0593 53.8658 51.7144 53.7111C51.3695 53.5563 51.0634 53.3268 50.8183 53.0391C50.5755 52.7393 50.4014 52.39 50.3081 52.0158C50.2149 51.6415 50.2048 51.2514 50.2785 50.8728C50.4268 50.0975 50.8361 49.3963 51.4382 48.8859C52.0403 48.3755 52.799 48.0865 53.5881 48.0671C53.966 48.0589 54.341 48.135 54.6858 48.2897C55.0307 48.4445 55.3368 48.674 55.582 48.9617C55.8247 49.2615 55.9989 49.6107 56.0921 49.985C56.1854 50.3593 56.1955 50.7494 56.1217 51.128Z" fill="#FF3E54"/>
</svg>
