<svg width="80" height="80" viewBox="0 0 80 80" fill="none" xmlns="http://www.w3.org/2000/svg">
<rect width="80" height="80" rx="5" fill="white"/>
<path d="M56.4994 20.291H45.4993C43.7274 20.291 42.291 21.7274 42.291 23.4993V34.4994C42.291 36.2713 43.7274 37.7077 45.4993 37.7077H56.4994C58.2713 37.7077 59.7077 36.2713 59.7077 34.4994V23.4993C59.7077 21.7274 58.2713 20.291 56.4994 20.291Z" fill="#333333"/>
<path d="M59.6765 48.7307L53.2671 42.3214C52.6648 41.7215 51.8494 41.3848 50.9993 41.3848C50.1493 41.3848 49.3338 41.7215 48.7315 42.3214L42.3222 48.7307C41.7219 49.3328 41.3848 50.1483 41.3848 50.9986C41.3848 51.8488 41.7219 52.6643 42.3222 53.2664L48.7315 59.6757C49.3336 60.276 50.1491 60.6131 50.9993 60.6131C51.8495 60.6131 52.6651 60.276 53.2671 59.6757L59.6765 53.2664C60.2772 52.6645 60.6146 51.8489 60.6146 50.9986C60.6146 50.1482 60.2772 49.3326 59.6765 48.7307Z" fill="#FF3E54"/>
<path d="M34.4994 20.291H23.4993C21.7274 20.291 20.291 21.7274 20.291 23.4993V34.4994C20.291 36.2713 21.7274 37.7077 23.4993 37.7077H34.4994C36.2713 37.7077 37.7077 36.2713 37.7077 34.4994V23.4993C37.7077 21.7274 36.2713 20.291 34.4994 20.291Z" fill="#333333"/>
<path d="M34.4994 42.291H23.4993C21.7274 42.291 20.291 43.7274 20.291 45.4993V56.4994C20.291 58.2713 21.7274 59.7077 23.4993 59.7077H34.4994C36.2713 59.7077 37.7077 58.2713 37.7077 56.4994V45.4993C37.7077 43.7274 36.2713 42.291 34.4994 42.291Z" fill="#333333"/>
</svg>
