<svg xmlns="http://www.w3.org/2000/svg" width="20" height="20" viewBox="0 0 20 20" fill="none">
  <g clip-path="url(#clip0_393_35)">
    <path d="M19.5079 8.81341L11.1886 0.494069C10.5324 -0.162086 9.46824 -0.162086 8.81209 0.494069C8.15593 1.15022 8.15593 2.21441 8.81209 2.87056L15.9424 10.0008L8.81209 17.131C8.15593 17.7872 8.15593 18.8514 8.81209 19.5075C9.46824 20.1637 10.5324 20.1637 11.1886 19.5075L19.5079 11.1882C20.164 10.5337 20.164 9.46956 19.5079 8.81341ZM9.50488 8.30963L2.90006 1.34842C2.23639 0.649816 1.16142 0.649816 0.497753 1.34842C-0.165918 2.04702 -0.165918 3.18032 0.497753 3.87978L5.90186 9.57531L0.497753 15.2708C-0.165918 15.9695 -0.165918 17.1036 0.497753 17.8022C1.16142 18.5008 2.23639 18.5008 2.90006 17.8022L9.50488 10.841C10.1685 10.1424 10.1685 9.00908 9.50488 8.30963Z" fill="#FF3E54"/>
  </g>
  <defs>
    <clipPath id="clip0_393_35">
      <rect width="20" height="20" fill="white"/>
    </clipPath>
  </defs>
</svg>