<svg width="20" height="20" viewBox="0 0 20 20" fill="none" xmlns="http://www.w3.org/2000/svg">
<g id="Frame" clip-path="url(#clip0_161_84)">
<g id="Group">
<g id="Layer 2">
<g id="02.twitter">
<path id="Vector" d="M10 20C15.5228 20 20 15.5228 20 10C20 4.47715 15.5228 0 10 0C4.47715 0 0 4.47715 0 10C0 15.5228 4.47715 20 10 20Z" fill="#333333"/>
<path id="Vector_2" d="M14.9799 6.97401C14.7436 7.32908 14.4548 7.64627 14.1234 7.9148C14.0816 7.94962 14.0481 7.99332 14.0253 8.04271C14.0026 8.0921 13.9911 8.14595 13.9918 8.20033V8.23322C13.9879 8.94631 13.8569 9.65298 13.6049 10.3201C13.3453 11.0202 12.9595 11.6669 12.4668 12.228C11.8046 12.9818 10.9528 13.5447 9.99967 13.8582C9.37339 14.0615 8.71862 14.1632 8.06019 14.1595C7.01564 14.1594 5.9897 13.883 5.08651 13.3582C5.05414 13.3398 5.02867 13.3114 5.01394 13.2772C4.99922 13.243 4.99606 13.2049 5.00493 13.1688C5.01404 13.1332 5.03479 13.1017 5.06388 13.0792C5.09298 13.0568 5.12873 13.0448 5.16546 13.0451H5.41546C6.20927 13.047 6.98552 12.8115 7.6444 12.3688C7.25174 12.3052 6.88425 12.1344 6.58244 11.8753C6.28062 11.6162 6.05619 11.2788 5.93388 10.9003C5.92762 10.8814 5.92648 10.8611 5.93058 10.8416C5.93469 10.822 5.94389 10.8039 5.95725 10.7891C5.97061 10.7743 5.98766 10.7632 6.00667 10.7571C6.02567 10.751 6.04595 10.75 6.06546 10.7543C6.1852 10.7768 6.30677 10.7883 6.42861 10.7885H6.47467C6.09516 10.6141 5.77429 10.3336 5.55082 9.98077C5.32736 9.62794 5.21088 9.21794 5.21546 8.80033C5.21559 8.78079 5.22079 8.76162 5.23053 8.74468C5.24028 8.72774 5.25424 8.71362 5.27107 8.70368C5.2879 8.69374 5.30701 8.68833 5.32655 8.68798C5.34609 8.68762 5.36538 8.69233 5.38256 8.70165C5.53692 8.78783 5.70256 8.85204 5.87467 8.89244C5.53447 8.55586 5.31565 8.11586 5.25254 7.64148C5.18944 7.1671 5.28561 6.68519 5.52598 6.27138C5.53508 6.25549 5.54789 6.24204 5.56333 6.23219C5.57876 6.22234 5.59636 6.21638 5.61461 6.21483C5.63285 6.21328 5.6512 6.21617 5.66808 6.22327C5.68496 6.23037 5.69986 6.24147 5.71151 6.25559C6.18675 6.84402 6.77532 7.331 7.44232 7.68767C8.10931 8.04433 8.84114 8.26341 9.5944 8.33191H9.60493C9.616 8.33159 9.62688 8.32902 9.63692 8.32436C9.64697 8.31969 9.65595 8.31304 9.66334 8.30479C9.67073 8.29654 9.67636 8.28688 9.67989 8.27638C9.68342 8.26589 9.68478 8.25479 9.68388 8.24375C9.6545 7.97969 9.67142 7.71253 9.73388 7.45428C9.81877 7.10324 9.99304 6.78014 10.2397 6.51638C10.4864 6.25261 10.7972 6.05716 11.1418 5.94901C11.3629 5.87995 11.5931 5.84447 11.8247 5.84375C12.3498 5.84315 12.8571 6.03454 13.251 6.38191C13.302 6.42756 13.368 6.45285 13.4365 6.45296C13.4587 6.45249 13.4808 6.44939 13.5023 6.44375C13.8724 6.35024 14.227 6.20353 14.5549 6.00823C14.5746 5.99612 14.5974 5.99037 14.6205 5.99178C14.6435 5.99319 14.6655 6.00167 14.6835 6.01608C14.7015 6.03049 14.7146 6.05011 14.7211 6.07226C14.7275 6.0944 14.7269 6.118 14.7194 6.1398C14.6099 6.48426 14.4148 6.79528 14.1523 7.04375C14.3888 6.98737 14.6196 6.90941 14.8418 6.81086C14.8637 6.80239 14.8877 6.80096 14.9105 6.80678C14.9333 6.81259 14.9537 6.82536 14.9689 6.8433C14.9841 6.86124 14.9933 6.88347 14.9953 6.90689C14.9973 6.93032 14.9919 6.95378 14.9799 6.97401Z" fill="white"/>
</g>
</g>
</g>
</g>
<defs>
<clipPath id="clip0_161_84">
<rect width="20" height="20" fill="white"/>
</clipPath>
</defs>
</svg>
